<svg xmlns="http://www.w3.org/2000/svg" xmlns:xlink="http://www.w3.org/1999/xlink" id="Layer_1" x="0" y="0" version="1.1" viewBox="0 0 166 312" xml:space="preserve" style="enable-background:new 0 0 166 312"><style type="text/css">.st0{clip-path:url(#SVGID_2_)}.st1{fill:#ede8e8}</style><g><defs><rect id="SVGID_1_" width="166" height="312"/></defs><clipPath id="SVGID_2_"><use xlink:href="#SVGID_1_" style="overflow:visible"/></clipPath><g class="st0"><g transform="translate(-322 -749)"><circle cx="329.5" cy="1053.5" r="7.5" class="st1"/></g><g transform="translate(-253 -749)"><circle cx="260.5" cy="984.5" r="7.5" class="st1"/></g><g transform="translate(-184 -749)"><circle cx="191.5" cy="915.5" r="7.5" class="st1"/></g><g transform="translate(-115 -749)"><circle cx="122.5" cy="846.5" r="7.5" class="st1"/></g><g transform="translate(-46 -749)"><circle cx="53.5" cy="777.5" r="7.5" class="st1"/></g><g transform="translate(-322 -684)"><circle cx="394.5" cy="988.5" r="7.5" class="st1"/></g><g transform="translate(-253 -684)"><circle cx="325.5" cy="919.5" r="7.5" class="st1"/></g><g transform="translate(-184 -684)"><circle cx="256.5" cy="850.5" r="7.5" class="st1"/></g><g transform="translate(-115 -684)"><circle cx="187.5" cy="781.5" r="7.5" class="st1"/></g><g transform="translate(-46 -684)"><circle cx="118.5" cy="712.5" r="7.5" class="st1"/></g><g transform="translate(-322 -619)"><circle cx="459.5" cy="923.5" r="7.5" class="st1"/></g><g transform="translate(-253 -619)"><circle cx="390.5" cy="854.5" r="7.5" class="st1"/></g><g transform="translate(-184 -619)"><circle cx="321.5" cy="785.5" r="7.5" class="st1"/></g><g transform="translate(-115 -619)"><circle cx="252.5" cy="716.5" r="7.5" class="st1"/></g><g transform="translate(-46 -619)"><circle cx="183.5" cy="647.5" r="7.5" class="st1"/></g></g></g></svg>