<svg xmlns="http://www.w3.org/2000/svg" xmlns:xlink="http://www.w3.org/1999/xlink" width="312" height="166" viewBox="0 0 312 166"><defs><clipPath id="a"><rect width="312" height="166" fill="none"/></clipPath></defs><g clip-path="url(#a)"><g transform="translate(-322 -749)"><circle cx="7.5" cy="7.5" r="7.5" transform="translate(322 749)" fill="#393939"/></g><g transform="translate(-253 -749)"><circle cx="7.5" cy="7.5" r="7.5" transform="translate(322 749)" fill="#393939"/></g><g transform="translate(-184 -749)"><circle cx="7.5" cy="7.5" r="7.5" transform="translate(322 749)" fill="#393939"/></g><g transform="translate(-115 -749)"><circle cx="7.5" cy="7.5" r="7.5" transform="translate(322 749)" fill="#393939"/></g><g transform="translate(-46 -749)"><circle cx="7.5" cy="7.5" r="7.5" transform="translate(322 749)" fill="#393939"/></g><g transform="translate(-322 -684)"><circle cx="7.5" cy="7.5" r="7.5" transform="translate(322 749)" fill="#393939"/></g><g transform="translate(-253 -684)"><circle cx="7.5" cy="7.5" r="7.5" transform="translate(322 749)" fill="#393939"/></g><g transform="translate(-184 -684)"><circle cx="7.5" cy="7.5" r="7.5" transform="translate(322 749)" fill="#393939"/></g><g transform="translate(-115 -684)"><circle cx="7.5" cy="7.5" r="7.5" transform="translate(322 749)" fill="#393939"/></g><g transform="translate(-46 -684)"><circle cx="7.5" cy="7.5" r="7.5" transform="translate(322 749)" fill="#393939"/></g><g transform="translate(-322 -619)"><circle cx="7.5" cy="7.5" r="7.5" transform="translate(322 749)" fill="#393939"/></g><g transform="translate(-253 -619)"><circle cx="7.5" cy="7.5" r="7.5" transform="translate(322 749)" fill="#393939"/></g><g transform="translate(-184 -619)"><circle cx="7.5" cy="7.5" r="7.5" transform="translate(322 749)" fill="#393939"/></g><g transform="translate(-115 -619)"><circle cx="7.5" cy="7.5" r="7.5" transform="translate(322 749)" fill="#393939"/></g><g transform="translate(-46 -619)"><circle cx="7.5" cy="7.5" r="7.5" transform="translate(322 749)" fill="#393939"/></g></g></svg>