<svg xmlns="http://www.w3.org/2000/svg" xmlns:xlink="http://www.w3.org/1999/xlink" width="157" height="219" viewBox="0 0 157 219"><defs><clipPath id="a"><rect width="157" height="219" fill="none"/></clipPath></defs><g clip-path="url(#a)"><g transform="translate(-322 -749)"><circle cx="7.5" cy="7.5" r="7.5" transform="translate(322 749)" fill="#393939"/></g><g transform="translate(-275 -749)"><circle cx="7.5" cy="7.5" r="7.5" transform="translate(322 749)" fill="#393939"/></g><g transform="translate(-228 -749)"><circle cx="7.5" cy="7.5" r="7.5" transform="translate(322 749)" fill="#393939"/></g><g transform="translate(-181 -749)"><circle cx="7.5" cy="7.5" r="7.5" transform="translate(322 749)" fill="#393939"/></g><g transform="translate(-322 -710)"><circle cx="7.5" cy="7.5" r="7.5" transform="translate(322 749)" fill="#393939"/></g><g transform="translate(-275 -710)"><circle cx="7.5" cy="7.5" r="7.5" transform="translate(322 749)" fill="#393939"/></g><g transform="translate(-228 -710)"><circle cx="7.5" cy="7.5" r="7.5" transform="translate(322 749)" fill="#393939"/></g><g transform="translate(-181 -710)"><circle cx="7.5" cy="7.5" r="7.5" transform="translate(322 749)" fill="#393939"/></g><g transform="translate(-322 -671)"><circle cx="7.5" cy="7.5" r="7.5" transform="translate(322 749)" fill="#393939"/></g><g transform="translate(-275 -671)"><circle cx="7.5" cy="7.5" r="7.5" transform="translate(322 749)" fill="#393939"/></g><g transform="translate(-228 -671)"><circle cx="7.5" cy="7.5" r="7.5" transform="translate(322 749)" fill="#393939"/></g><g transform="translate(-181 -671)"><circle cx="7.5" cy="7.5" r="7.5" transform="translate(322 749)" fill="#393939"/></g><g transform="translate(-322 -632)"><circle cx="7.5" cy="7.5" r="7.5" transform="translate(322 749)" fill="#393939"/></g><g transform="translate(-275 -632)"><circle cx="7.5" cy="7.5" r="7.5" transform="translate(322 749)" fill="#393939"/></g><g transform="translate(-228 -632)"><circle cx="7.5" cy="7.5" r="7.5" transform="translate(322 749)" fill="#393939"/></g><g transform="translate(-181 -632)"><circle cx="7.5" cy="7.5" r="7.5" transform="translate(322 749)" fill="#393939"/></g><g transform="translate(-322 -593)"><circle cx="7.5" cy="7.5" r="7.5" transform="translate(322 749)" fill="#393939"/></g><g transform="translate(-275 -593)"><circle cx="7.5" cy="7.5" r="7.5" transform="translate(322 749)" fill="#393939"/></g><g transform="translate(-228 -593)"><circle cx="7.5" cy="7.5" r="7.5" transform="translate(322 749)" fill="#393939"/></g><g transform="translate(-181 -593)"><circle cx="7.5" cy="7.5" r="7.5" transform="translate(322 749)" fill="#393939"/></g><g transform="translate(-322 -554)"><circle cx="7.5" cy="7.5" r="7.5" transform="translate(322 749)" fill="#393939"/></g><g transform="translate(-275 -554)"><circle cx="7.5" cy="7.5" r="7.5" transform="translate(322 749)" fill="#393939"/></g><g transform="translate(-228 -554)"><circle cx="7.5" cy="7.5" r="7.5" transform="translate(322 749)" fill="#393939"/></g><g transform="translate(-181 -554)"><circle cx="7.5" cy="7.5" r="7.5" transform="translate(322 749)" fill="#393939"/></g></g></svg>