<svg xmlns="http://www.w3.org/2000/svg" xmlns:xlink="http://www.w3.org/1999/xlink" viewBox="0 0 3692.08 919.24"><defs><style>.cls-1,.cls-11,.cls-12,.cls-22,.cls-26,.cls-30,.cls-31,.cls-33,.cls-40,.cls-41,.cls-42,.cls-44,.cls-55,.cls-56,.cls-57,.cls-59{fill:none;}.cls-1,.cls-22,.cls-44,.cls-45,.cls-46,.cls-55{stroke:#fff;}.cls-1{stroke-miterlimit:10;}.cls-2{isolation:isolate;}.cls-19,.cls-24,.cls-3,.cls-8,.cls-9{fill:#ddd3d3;}.cls-17,.cls-23,.cls-4,.cls-47,.cls-53,.cls-6,.cls-7{fill:#fff;}.cls-11,.cls-12,.cls-13,.cls-14,.cls-17,.cls-18,.cls-19,.cls-24,.cls-25,.cls-26,.cls-27,.cls-28,.cls-29,.cls-31,.cls-34,.cls-36,.cls-37,.cls-4,.cls-47,.cls-48,.cls-49,.cls-5,.cls-50,.cls-51,.cls-52,.cls-6,.cls-7,.cls-8,.cls-9{stroke:#232323;}.cls-11,.cls-12,.cls-13,.cls-14,.cls-17,.cls-18,.cls-19,.cls-22,.cls-24,.cls-25,.cls-26,.cls-27,.cls-28,.cls-29,.cls-30,.cls-31,.cls-33,.cls-34,.cls-36,.cls-37,.cls-4,.cls-40,.cls-41,.cls-42,.cls-43,.cls-44,.cls-45,.cls-46,.cls-47,.cls-48,.cls-49,.cls-5,.cls-50,.cls-51,.cls-52,.cls-53,.cls-55,.cls-56,.cls-57,.cls-59,.cls-6,.cls-7,.cls-8,.cls-9{stroke-linejoin:round;}.cls-11,.cls-14,.cls-24,.cls-29,.cls-30,.cls-34,.cls-4,.cls-40,.cls-41{stroke-width:14px;}.cls-34,.cls-37,.cls-5{fill:#8bccbd;}.cls-12,.cls-13,.cls-33,.cls-36,.cls-42,.cls-48,.cls-49,.cls-5,.cls-50,.cls-51,.cls-52,.cls-55,.cls-56,.cls-57,.cls-7{stroke-width:8px;}.cls-22,.cls-31,.cls-53,.cls-59,.cls-6,.cls-9{stroke-width:6px;}.cls-25,.cls-26,.cls-28,.cls-37,.cls-43,.cls-47,.cls-8{stroke-width:10px;}.cls-10,.cls-14,.cls-18,.cls-25,.cls-27{fill:#afa3a3;}.cls-13{fill:#f7c87c;}.cls-15,.cls-38{opacity:0.3;}.cls-16,.cls-38{fill:#232323;}.cls-17,.cls-18,.cls-19{stroke-width:12px;}.cls-20,.cls-36{fill:#ef3426;}.cls-21{clip-path:url(#clip-path);}.cls-28,.cls-32,.cls-49{fill:#592aea;}.cls-29,.cls-50,.cls-54{fill:#f46a1e;}.cls-30,.cls-42{stroke:#592aea;}.cls-33,.cls-53{stroke:#ef3426;}.cls-35{opacity:0.4;}.cls-39,.cls-52{fill:#27aae1;}.cls-40{stroke:#27aae1;}.cls-40,.cls-41,.cls-57{stroke-linecap:round;}.cls-40,.cls-41{mix-blend-mode:multiply;}.cls-41{stroke:#fff200;}.cls-43{fill:#0da691;}.cls-43,.cls-56,.cls-57{stroke:#231f20;}.cls-44{stroke-width:4px;}.cls-45{fill:#f15b40;}.cls-45,.cls-46{stroke-width:3px;}.cls-46{fill:#1b75bc;}.cls-48{fill:#7050f9;}.cls-51{fill:#fff200;}.cls-58{fill:#595252;}.cls-59{stroke:#f7c87c;}</style><clipPath id="clip-path"><circle class="cls-1" cx="550.79" cy="462.83" r="100.35"/></clipPath></defs><g class="cls-2"><g id="Layer_2" data-name="Layer 2"><g id="artwork"><rect class="cls-3" width="3692.08" height="756.93"/><circle class="cls-4" cx="3360.66" cy="659.94" r="166.52"/><circle class="cls-5" cx="3360.66" cy="659.94" r="119.37"/><rect class="cls-6" x="3352.69" y="483.15" width="15.94" height="138.98"/><rect class="cls-6" x="3276.81" y="514.58" width="15.94" height="138.98" transform="translate(549.09 2493.76) rotate(-45)"/><rect class="cls-6" x="3245.39" y="590.46" width="15.94" height="138.98" transform="translate(2593.41 3913.3) rotate(-90)"/><rect class="cls-6" x="3276.81" y="666.33" width="15.94" height="138.98" transform="translate(5087.17 3578.81) rotate(-135)"/><rect class="cls-6" x="3352.69" y="697.76" width="15.94" height="138.98" transform="translate(6721.31 1534.49) rotate(-180)"/><rect class="cls-6" x="3428.56" y="666.33" width="15.94" height="138.98" transform="translate(6386.82 -1173.88) rotate(135)"/><rect class="cls-6" x="3459.99" y="590.46" width="15.94" height="138.98" transform="translate(4127.9 -2808.01) rotate(90)"/><rect class="cls-6" x="3428.56" y="514.58" width="15.94" height="138.98" transform="translate(1419.54 -2258.92) rotate(45)"/><circle class="cls-7" cx="3360.66" cy="659.94" r="71.47"/><rect class="cls-8" x="2849.14" y="346.81" width="57.4" height="254.51"/><rect class="cls-8" x="2841.34" y="380.11" width="73" height="221.21"/><rect class="cls-8" x="2832.64" y="469.87" width="90.39" height="131.46"/><rect class="cls-8" x="2823.73" y="542.83" width="108.21" height="58.49"/><line class="cls-9" x1="2877.84" y1="346.81" x2="2877.84" y2="601.32"/><line class="cls-9" x1="2893.01" y1="346.81" x2="2893.01" y2="601.32"/><line class="cls-9" x1="2862.66" y1="346.81" x2="2862.66" y2="601.32"/><path class="cls-10" d="M3315.65,756.93h-46.28V657.56H3082V595.75c70,0,201.86-97.68,233.7-235.11h158S3238.89,484.78,3315.65,756.93Z"/><path class="cls-3" d="M3393.26,360.64,3189,657.56H3082V595.75c70,0,201.86-97.68,233.7-235.11Z"/><path class="cls-11" d="M3082,657.57V595.75c70,0,201.86-97.68,233.7-235.11h158s-234.76,124.14-158,396.29h-46.28V657.57Z"/><line class="cls-12" x1="3392.4" y1="360.64" x2="3188.96" y2="657.57"/><polygon class="cls-13" points="3140.29 657.56 3281.78 522.08 3249.34 657.57 3140.29 657.56"/><line class="cls-7" x1="3243.45" y1="558.78" x2="3273" y2="558.78"/><line class="cls-12" x1="3215.62" y1="584.07" x2="3266.94" y2="584.07"/><line class="cls-12" x1="3190.63" y1="609.36" x2="3260.88" y2="609.36"/><line class="cls-12" x1="3165.46" y1="633.46" x2="3253.35" y2="633.46"/><rect class="cls-14" x="2149.73" y="446.09" width="110.94" height="133.76"/><rect class="cls-14" x="2149.73" y="290.76" width="110.94" height="133.76"/><rect class="cls-4" x="2260.67" y="265.85" width="22.92" height="313.99" transform="translate(4544.26 845.7) rotate(180)"/><g class="cls-15"><polygon class="cls-16" points="2156.73 290.76 2208.38 579.85 2142.73 579.85 2142.73 290.76 2156.73 290.76"/></g><rect class="cls-4" x="2126.81" y="265.85" width="22.92" height="313.99"/><rect class="cls-17" x="2564.47" y="318.29" width="135.2" height="227.03"/><rect class="cls-18" x="2632.07" y="318.29" width="67.6" height="227.03"/><rect class="cls-17" x="2591.66" y="280.08" width="80.81" height="265.23"/><rect class="cls-19" x="2632.07" y="280.08" width="40.41" height="265.23"/><rect class="cls-17" x="2615.98" y="249.21" width="32.19" height="304.37"/><path class="cls-5" d="M2650,233.12a17.93,17.93,0,1,0-35.86,0Z"/><circle class="cls-20" cx="550.79" cy="462.83" r="120.98"/><g class="cls-21"><rect class="cls-22" x="408.9" y="445.25" width="35.16" height="35.16" transform="translate(-202.36 437.13) rotate(-45)"/><rect class="cls-22" x="433.76" y="470.11" width="35.16" height="35.16" transform="translate(-212.66 461.99) rotate(-45)"/><rect class="cls-22" x="458.63" y="494.98" width="35.16" height="35.16" transform="translate(-222.95 486.85) rotate(-45)"/><rect class="cls-22" x="483.49" y="519.84" width="35.16" height="35.16" transform="translate(-233.25 511.71) rotate(-45)"/><rect class="cls-22" x="508.35" y="544.7" width="35.16" height="35.16" transform="translate(-243.55 536.58) rotate(-45)"/><rect class="cls-22" x="533.21" y="569.56" width="35.16" height="35.16" transform="translate(-253.85 561.44) rotate(-45)"/><rect class="cls-22" x="433.76" y="420.39" width="35.16" height="35.16" transform="translate(-177.5 447.43) rotate(-45)"/><rect class="cls-22" x="458.63" y="445.25" width="35.16" height="35.16" transform="translate(-187.79 472.29) rotate(-45)"/><rect class="cls-22" x="483.49" y="470.11" width="35.16" height="35.16" transform="translate(-198.09 497.15) rotate(-45)"/><rect class="cls-22" x="508.35" y="494.98" width="35.16" height="35.16" transform="translate(-208.39 522.01) rotate(-45)"/><rect class="cls-22" x="533.21" y="519.84" width="35.16" height="35.16" transform="translate(-218.69 546.87) rotate(-45)"/><rect class="cls-22" x="558.07" y="544.7" width="35.16" height="35.16" transform="translate(-228.99 571.74) rotate(-45)"/><rect class="cls-22" x="458.63" y="395.53" width="35.16" height="35.16" transform="translate(-152.63 457.73) rotate(-45)"/><rect class="cls-22" x="483.49" y="420.39" width="35.16" height="35.16" transform="translate(-162.93 482.59) rotate(-45)"/><rect class="cls-22" x="508.35" y="445.25" width="35.16" height="35.16" transform="translate(-173.23 507.45) rotate(-45)"/><rect class="cls-22" x="533.21" y="470.11" width="35.16" height="35.16" transform="translate(-183.53 532.31) rotate(-45)"/><rect class="cls-22" x="558.07" y="494.98" width="35.16" height="35.16" transform="translate(-193.83 557.17) rotate(-45)"/><rect class="cls-22" x="582.93" y="519.84" width="35.16" height="35.16" transform="translate(-204.13 582.03) rotate(-45)"/><rect class="cls-22" x="483.49" y="370.67" width="35.16" height="35.16" transform="translate(-127.77 468.02) rotate(-45)"/><rect class="cls-22" x="508.35" y="395.53" width="35.16" height="35.16" transform="translate(-138.07 492.89) rotate(-45)"/><rect class="cls-22" x="533.21" y="420.39" width="35.16" height="35.16" transform="translate(-148.37 517.75) rotate(-45)"/><rect class="cls-22" x="558.07" y="445.25" width="35.16" height="35.16" transform="translate(-158.67 542.61) rotate(-45)"/><rect class="cls-22" x="582.93" y="470.11" width="35.16" height="35.16" transform="translate(-168.97 567.47) rotate(-45)"/><rect class="cls-22" x="607.8" y="494.98" width="35.16" height="35.16" transform="translate(-179.26 592.33) rotate(-45)"/><rect class="cls-22" x="508.35" y="345.81" width="35.16" height="35.16" transform="translate(-102.91 478.32) rotate(-45)"/><rect class="cls-22" x="533.21" y="370.67" width="35.16" height="35.16" transform="translate(-113.21 503.18) rotate(-45)"/><rect class="cls-22" x="558.07" y="395.53" width="35.16" height="35.16" transform="translate(-123.51 528.05) rotate(-45)"/><rect class="cls-22" x="582.93" y="420.39" width="35.16" height="35.16" transform="translate(-133.81 552.91) rotate(-45)"/><rect class="cls-22" x="607.8" y="445.25" width="35.16" height="35.16" transform="translate(-144.1 577.77) rotate(-45)"/><rect class="cls-22" x="632.66" y="470.11" width="35.16" height="35.16" transform="translate(-154.4 602.63) rotate(-45)"/><rect class="cls-22" x="533.21" y="320.94" width="35.16" height="35.16" transform="translate(-78.05 488.62) rotate(-45)"/><rect class="cls-22" x="558.07" y="345.81" width="35.16" height="35.16" transform="translate(-88.35 513.48) rotate(-45)"/><rect class="cls-22" x="582.93" y="370.67" width="35.16" height="35.16" transform="translate(-98.65 538.34) rotate(-45)"/><rect class="cls-22" x="607.8" y="395.53" width="35.16" height="35.16" transform="translate(-108.94 563.2) rotate(-45)"/><rect class="cls-22" x="632.66" y="420.39" width="35.16" height="35.16" transform="translate(-119.24 588.07) rotate(-45)"/><rect class="cls-22" x="657.52" y="445.25" width="35.16" height="35.16" transform="translate(-129.54 612.93) rotate(-45)"/></g><circle class="cls-1" cx="550.79" cy="462.83" r="100.35"/><circle class="cls-22" cx="550.79" cy="462.83" r="100.35"/><rect class="cls-23" x="2734.34" y="389.66" width="62.21" height="403.34"/><rect class="cls-23" x="2630.42" y="457.91" width="112.36" height="335.1"/><rect class="cls-23" x="2536.12" y="520.04" width="135.92" height="272.96"/><rect class="cls-24" x="1679.95" y="271.4" width="137.2" height="334.87"/><rect class="cls-25" x="1794.31" y="390.1" width="22.84" height="216.16"/><rect class="cls-26" x="1678.7" y="390.1" width="22.84" height="216.16"/><rect class="cls-27" x="1771.83" y="271.4" width="44.96" height="118.71"/><rect class="cls-11" x="1679.95" y="271.4" width="137.2" height="334.87"/><polygon class="cls-28" points="1806.98 271.4 1690.12 271.4 1711.3 216.44 1722.97 237.19 1774.12 237.19 1785.79 216.44 1806.98 271.4"/><polygon class="cls-28" points="1771.83 271.4 1816.78 316.35 1816.78 271.4 1771.83 271.4"/><polygon class="cls-28" points="1725.27 271.4 1680.31 316.35 1680.31 271.4 1725.27 271.4"/><polyline class="cls-26" points="1771.83 271.4 1771.83 390.11 1816.78 390.11"/><polyline class="cls-26" points="1725.27 271.4 1725.27 390.11 1680.31 390.11"/><circle class="cls-29" cx="1644.24" cy="552.76" r="118.58"/><rect class="cls-23" x="1420.37" y="262.87" width="163.98" height="274.95"/><rect class="cls-23" y="758.27" width="3692.08" height="160.97"/><rect class="cls-23" x="1426.21" y="537.82" width="249.67" height="232.57"/><rect class="cls-23" x="1244.3" y="635.27" width="731.28" height="135.12"/><rect class="cls-23" x="1321.36" y="474.25" width="99.01" height="296.14"/><polygon class="cls-24" points="2061.26 292.74 2061.26 635.27 1913.91 635.27 1913.91 292.74 1967.21 292.74 1967.21 333.49 2007.97 333.49 2007.97 292.74 2061.26 292.74"/><polygon class="cls-4" points="1976.43 194.01 1961.69 194.01 1913.91 266.76 1976.43 266.76 1976.43 194.01"/><polygon class="cls-14" points="1998.75 194.01 2013.5 194.01 2061.27 266.76 1998.75 266.76 1998.75 194.01"/><line class="cls-30" x1="1987.59" y1="360.64" x2="1987.59" y2="436.23"/><line class="cls-30" x1="1962" y1="360.64" x2="1962" y2="436.23"/><line class="cls-30" x1="2013.17" y1="360.64" x2="2013.17" y2="436.23"/><polygon class="cls-23" points="1975.58 489.88 1914.5 426.59 1852.25 489.88 1852.25 646 1975.58 646 1975.58 489.88"/><rect class="cls-23" x="1975.58" y="579.85" width="345.42" height="315.81"/><rect class="cls-23" x="1975.58" y="724.67" width="588.89" height="170.99"/><line class="cls-31" x1="1420.37" y1="286.14" x2="1584.35" y2="286.14"/><line class="cls-31" x1="1420.37" y1="308.73" x2="1584.35" y2="308.73"/><line class="cls-31" x1="1420.37" y1="331.31" x2="1584.35" y2="331.31"/><line class="cls-31" x1="1420.37" y1="353.9" x2="1584.35" y2="353.9"/><line class="cls-31" x1="1420.37" y1="376.49" x2="1584.35" y2="376.49"/><line class="cls-31" x1="1420.37" y1="399.08" x2="1584.35" y2="399.08"/><line class="cls-31" x1="1420.37" y1="421.66" x2="1584.35" y2="421.66"/><line class="cls-31" x1="1420.37" y1="444.25" x2="1584.35" y2="444.25"/><rect class="cls-32" x="417.29" y="553.96" width="322.67" height="137.6"/><path class="cls-22" d="M417.29,581.44c32.27,0,32.27,20,64.53,20s32.27-20,64.53-20,32.27,20,64.54,20,32.27-20,64.53-20,32.27,20,64.54,20"/><path class="cls-22" d="M417.29,611.4c32.27,0,32.27,20,64.53,20s32.27-20,64.53-20,32.27,20,64.54,20,32.27-20,64.53-20,32.27,20,64.54,20"/><path class="cls-22" d="M417.29,641.36c32.27,0,32.27,20,64.53,20s32.27-20,64.53-20,32.27,20,64.54,20,32.27-20,64.53-20,32.27,20,64.54,20"/><rect class="cls-33" x="794.79" y="306.18" width="26.88" height="26.88"/><rect class="cls-33" x="794.79" y="279.3" width="26.88" height="26.88"/><rect class="cls-33" x="794.79" y="252.41" width="26.88" height="26.88"/><rect class="cls-33" x="821.68" y="252.41" width="26.88" height="26.88"/><rect class="cls-33" x="767.91" y="252.41" width="26.88" height="26.88"/><rect class="cls-33" x="794.79" y="225.53" width="26.88" height="26.88"/><path class="cls-34" d="M808.23,338.22C689.09,338.22,592.5,434.81,592.5,554H1024C1024,434.81,927.38,338.22,808.23,338.22Z"/><rect class="cls-23" x="3081.95" y="657.57" width="187.43" height="121.98"/><rect class="cls-23" x="2955.12" y="526.21" width="126.83" height="253.33"/><rect class="cls-23" x="2772.03" y="602.15" width="309.92" height="177.4"/><rect class="cls-23" x="739.96" y="468.06" width="504.34" height="319.9"/><rect class="cls-23" y="691.07" width="739.96" height="96.89" transform="translate(739.96 1479.03) rotate(180)"/><rect class="cls-23" x="1006.38" y="306.18" width="237.92" height="161.88"/><polyline class="cls-11" points="94.94 692.25 417.29 692.25 417.29 553.96 739.96 553.96"/><circle class="cls-6" cx="739.96" cy="767.24" r="13.46"/><circle class="cls-6" cx="81.48" cy="691.55" r="13.46"/><circle class="cls-6" cx="943.29" cy="698.14" r="13.46"/><path class="cls-6" d="M1205,757.46A13.47,13.47,0,1,0,1191.54,744,13.46,13.46,0,0,0,1205,757.46"/><polyline class="cls-11" points="739.96 753.78 739.96 468.06 1006.38 468.06 1006.38 306.18 1244.3 306.18 1244.3 625.26"/><polyline class="cls-11" points="1584.35 537.82 1584.35 262.88 1420.37 262.88 1420.37 474.25 1321.36 474.25 1321.36 627.67 943.29 627.67 943.29 684.68"/><polyline class="cls-11" points="2320.99 652.8 2535.01 652.8 2535.01 520.5 2649.17 520.5 2649.17 455.66 2727.33 455.66 2727.33 389.66 2800.55 389.66 2800.55 718.55 2956.78 718.55"/><polyline class="cls-11" points="1218.46 743.46 1426.21 743.46 1426.21 537.82 1674.98 537.82 1674.98 635.27 1848.99 635.27 1848.99 489.88 1912.29 426.59 1975.58 489.88 1975.58 579.85 2320.99 579.85 2320.99 767.24"/><polyline class="cls-11" points="2800.55 602.15 2955.12 602.15 2955.12 526.21 3081.95 526.21 3081.95 657.57 3269.37 657.57 3269.37 756.93 3605.1 756.93"/><circle class="cls-6" cx="2960.24" cy="718.85" r="13.46"/><circle class="cls-6" cx="3618.56" cy="756.93" r="13.46"/><circle class="cls-6" cx="2320.99" cy="779.32" r="13.46"/><rect class="cls-33" x="1012.75" y="234.62" width="44.28" height="44.28"/><rect class="cls-33" x="1057.03" y="234.62" width="44.28" height="44.28"/><rect class="cls-33" x="1101.31" y="234.62" width="44.28" height="44.28"/><rect class="cls-33" x="1145.59" y="234.62" width="44.28" height="44.28"/><rect class="cls-33" x="1189.87" y="234.62" width="44.28" height="44.28"/><path class="cls-32" d="M1079.47,163.92h-10.29v4.7h8.35v5.78h-8.35v8.35h-6.42V158.14h16.71Z"/><path class="cls-32" d="M1094.8,180.7H1086l-.89,2.05h-6.9l11.19-25.06h2.05l11.19,25.06h-6.9Zm-4.4-10.85-2.16,5.71h4.29Z"/><path class="cls-32" d="M1119.75,182.75l-5.55-7.64h-2.65v7.64h-6.42V158.14h9.66c5.41,0,9.51,3.25,9.51,8.47a8,8,0,0,1-3.88,7l6.49,9.13Zm-8.2-13.23h3.28a2.89,2.89,0,1,0,0-5.78h-3.28Z"/><path class="cls-32" d="M1135.87,182.75h-6.42V158.14h6.42Z"/><path class="cls-32" d="M1162.61,158.14V183.2h-2l-13.35-12.94v12.49h-6.42V157.69h2l13.35,12.76V158.14Z"/><path class="cls-32" d="M1184.61,163.92H1174v3.4h7.6v5.37H1174V177h11.11v5.78h-17.53V158.14h17.08Z"/><path class="cls-32" d="M1040.57,198.82h-10.29v4.7h8.35v5.78h-8.35v8.36h-6.42V193h16.71Z"/><path class="cls-32" d="M1050.49,217.66h-6.41V193h6.41Z"/><path class="cls-32" d="M1077.46,193l-11.19,25.06h-2L1053,193h7.27l5,12.09,4.93-12.09Z"/><path class="cls-32" d="M1097.08,198.82h-10.67v3.4H1094v5.37h-7.61v4.29h11.11v5.78H1080V193h17.08Z"/><path class="cls-32" d="M1126.58,217.66,1121,210h-2.65v7.65H1112V193h9.66c5.41,0,9.51,3.25,9.51,8.47a8,8,0,0,1-3.88,7l6.49,9.14Zm-8.21-13.24h3.29a2.89,2.89,0,1,0,0-5.78h-3.29Z"/><path class="cls-32" d="M1161,205.35c0,7.27-6,12.75-13.31,12.75s-13.24-5.48-13.24-12.75,5.89-12.75,13.24-12.75S1161,198.11,1161,205.35Zm-20,0c0,4.18,2.76,6.86,6.72,6.86a6.86,6.86,0,1,0-6.72-6.86Z"/><path class="cls-32" d="M1181.18,197.56l-4.29,3.28c-1.12-1.64-2.2-2.61-4.06-2.61-1.27,0-2.2.44-2.2,1.56,0,.94.59,1.38,2.12,2l2.84,1.19c4.1,1.72,6.3,3.8,6.3,7.42,0,4.85-4,7.68-9,7.68a10.7,10.7,0,0,1-9.8-5.52l4.32-3.28c1.2,1.61,2.72,3.17,5.48,3.17,1.72,0,2.54-.59,2.54-1.79s-.78-1.53-2.5-2.27l-2.53-1.12c-3.92-1.72-6.23-3.95-6.23-7.42,0-4.4,3.61-7.27,8.61-7.27A8.86,8.86,0,0,1,1181.18,197.56Z"/><path class="cls-32" d="M1202.63,198.82H1192v3.4h7.61v5.37H1192v4.29h11.11v5.78h-17.52V193h17.08Z"/><path class="cls-32" d="M1223.59,197.56l-4.29,3.28c-1.12-1.64-2.2-2.61-4.07-2.61-1.26,0-2.2.44-2.2,1.56,0,.94.6,1.38,2.13,2L1218,203c4.11,1.72,6.31,3.8,6.31,7.42,0,4.85-4,7.68-9,7.68a10.73,10.73,0,0,1-9.81-5.52l4.33-3.28c1.19,1.61,2.72,3.17,5.48,3.17,1.72,0,2.54-.59,2.54-1.79s-.79-1.53-2.5-2.27l-2.54-1.12c-3.91-1.72-6.22-3.95-6.22-7.42,0-4.4,3.61-7.27,8.61-7.27A8.86,8.86,0,0,1,1223.59,197.56Z"/><g class="cls-15"><polygon class="cls-16" points="1533.63 262.88 1566.6 537.82 1519.63 537.82 1519.63 262.88 1533.63 262.88"/></g><g class="cls-15"><polygon class="cls-16" points="2807.55 602.14 2840.52 718.03 2793.55 718.03 2793.55 602.14 2807.55 602.14"/></g><rect class="cls-4" x="1478.09" y="245.55" width="48.55" height="292.28"/><line class="cls-31" x1="1478.09" y1="276.16" x2="1526.63" y2="276.16"/><line class="cls-31" x1="1478.09" y1="299.03" x2="1526.63" y2="299.03"/><line class="cls-31" x1="1478.09" y1="321.89" x2="1526.63" y2="321.89"/><line class="cls-31" x1="1478.09" y1="344.76" x2="1526.63" y2="344.76"/><line class="cls-31" x1="1478.09" y1="367.63" x2="1526.63" y2="367.63"/><line class="cls-31" x1="1478.09" y1="390.5" x2="1526.63" y2="390.5"/><line class="cls-31" x1="1478.09" y1="413.37" x2="1526.63" y2="413.37"/><line class="cls-31" x1="1478.09" y1="436.23" x2="1526.63" y2="436.23"/><polygon class="cls-23" points="2509.81 436.52 2509.81 629.8 2345.84 629.8 2345.84 436.52 2386.26 436.52 2386.26 515.99 2469.4 515.99 2469.4 436.52 2509.81 436.52"/><g class="cls-35"><line class="cls-23" x1="2386.26" y1="515.99" x2="2386.26" y2="634.39"/><polygon class="cls-16" points="2393.26 515.99 2409.12 634.39 2379.26 634.39 2379.26 515.99 2393.26 515.99"/></g><polygon class="cls-11" points="2509.81 436.52 2509.81 629.8 2345.84 629.8 2345.84 436.52 2386.26 436.52 2386.26 515.99 2469.4 515.99 2469.4 436.52 2509.81 436.52"/><path class="cls-31" d="M2427.92,580.18h0a9.09,9.09,0,0,1,9.09,9.09v41.29a0,0,0,0,1,0,0h-18.19a0,0,0,0,1,0,0V589.27a9.09,9.09,0,0,1,9.09-9.09Z"/><path class="cls-31" d="M2461.07,580.18h0a9.09,9.09,0,0,1,9.09,9.09v41.29a0,0,0,0,1,0,0H2452a0,0,0,0,1,0,0V589.27a9.09,9.09,0,0,1,9.09-9.09Z"/><path class="cls-31" d="M2385.69,580.18h18.19a0,0,0,0,1,0,0v41.29a9.09,9.09,0,0,1-9.09,9.09h0a9.09,9.09,0,0,1-9.09-9.09V580.18A0,0,0,0,1,2385.69,580.18Z" transform="translate(4789.57 1210.74) rotate(-180)"/><path class="cls-16" d="M2489.77,532.51h0a4.65,4.65,0,0,1,4.65,4.65v16.13a0,0,0,0,1,0,0h-9.31a0,0,0,0,1,0,0V537.17A4.65,4.65,0,0,1,2489.77,532.51Z"/><path class="cls-16" d="M2489.77,495.21h0a4.65,4.65,0,0,1,4.65,4.65V516a0,0,0,0,1,0,0h-9.31a0,0,0,0,1,0,0V499.86A4.65,4.65,0,0,1,2489.77,495.21Z"/><path class="cls-16" d="M2489.77,457.91h0a4.65,4.65,0,0,1,4.65,4.65v16.13a0,0,0,0,1,0,0h-9.31a0,0,0,0,1,0,0V462.56a4.65,4.65,0,0,1,4.65-4.65Z"/><path class="cls-16" d="M2361.23,532.51h9.31a0,0,0,0,1,0,0v16.13a4.65,4.65,0,0,1-4.65,4.65h0a4.65,4.65,0,0,1-4.65-4.65V532.51A0,0,0,0,1,2361.23,532.51Z" transform="translate(4731.77 1085.8) rotate(180)"/><path class="cls-16" d="M2361.23,495.21h9.31a0,0,0,0,1,0,0v16.13a4.65,4.65,0,0,1-4.65,4.65h0a4.65,4.65,0,0,1-4.65-4.65V495.21A0,0,0,0,1,2361.23,495.21Z" transform="translate(4731.77 1011.2) rotate(-180)"/><path class="cls-16" d="M2361.23,457.91h9.31a0,0,0,0,1,0,0V474a4.65,4.65,0,0,1-4.65,4.65h0a4.65,4.65,0,0,1-4.65-4.65V457.91A0,0,0,0,1,2361.23,457.91Z" transform="translate(4731.77 936.6) rotate(180)"/><line class="cls-31" x1="2509.81" y1="567.41" x2="2345.84" y2="567.41"/><line class="cls-11" x1="2345.84" y1="436.52" x2="2345.84" y2="410.02"/><line class="cls-11" x1="2386.26" y1="436.52" x2="2386.26" y2="410.02"/><line class="cls-11" x1="2469.56" y1="436.52" x2="2469.56" y2="410.02"/><line class="cls-11" x1="2509.98" y1="436.52" x2="2509.98" y2="410.02"/><rect class="cls-26" x="2981.79" y="446.99" width="72.84" height="58.84"/><path class="cls-34" d="M3047.63,430.06a29.42,29.42,0,1,0-58.84,0Z"/><line class="cls-11" x1="2970.54" y1="430.06" x2="3065.87" y2="430.06"/><path class="cls-31" d="M3018.21,461.52h0a9.09,9.09,0,0,1,9.09,9.09V491.3a0,0,0,0,1,0,0h-18.19a0,0,0,0,1,0,0V470.62A9.09,9.09,0,0,1,3018.21,461.52Z"/><path class="cls-31" d="M3051.25,461.52h0a9.09,9.09,0,0,0-9.1,9.1V491.3h9.1"/><path class="cls-31" d="M2985.17,461.52h0a9.09,9.09,0,0,1,9.09,9.1V491.3h-9.09"/><line class="cls-12" x1="3018.21" y1="400.64" x2="3018.21" y2="339.35"/><rect class="cls-36" x="3018.21" y="339.35" width="57.48" height="21.29"/><circle class="cls-6" cx="1502.36" cy="154.96" r="13.46"/><line class="cls-11" x1="1502.36" y1="245.55" x2="1502.36" y2="168.56"/><circle class="cls-37" cx="329.44" cy="447.72" r="43.36"/><line class="cls-11" x1="329.44" y1="537.82" x2="329.44" y2="491.08"/><line class="cls-31" x1="329.44" y1="491.08" x2="329.44" y2="404.35"/><line class="cls-31" x1="329.44" y1="440.81" x2="361.84" y2="423.92"/><line class="cls-31" x1="329.44" y1="469.61" x2="372.44" y2="447.2"/><line class="cls-31" x1="329.44" y1="440.81" x2="297.03" y2="423.92"/><line class="cls-31" x1="329.44" y1="469.61" x2="286.43" y2="447.2"/><circle class="cls-37" cx="2877.84" cy="625.6" r="43.36"/><line class="cls-11" x1="2877.84" y1="715.71" x2="2877.84" y2="668.97"/><line class="cls-31" x1="2877.84" y1="668.97" x2="2877.84" y2="582.24"/><line class="cls-31" x1="2877.84" y1="618.69" x2="2910.24" y2="601.81"/><line class="cls-31" x1="2877.84" y1="647.49" x2="2920.84" y2="625.08"/><line class="cls-31" x1="2877.84" y1="618.69" x2="2845.43" y2="601.81"/><line class="cls-31" x1="2877.84" y1="647.49" x2="2834.83" y2="625.08"/><ellipse class="cls-38" cx="2102.86" cy="749.31" rx="169.63" ry="5.32"/><path class="cls-23" d="M2250.33,711.75v21H1980a25.27,25.27,0,0,1-25.27-25.28V656.14h240A55.61,55.61,0,0,1,2250.33,711.75Z"/><path class="cls-39" d="M2250.33,711.75v21H2139.82l-37.29-76.63h92.19A55.61,55.61,0,0,1,2250.33,711.75Z"/><polygon class="cls-10" points="2250.33 732.77 1970.14 732.77 1955.39 713.18 2250.33 711.75 2250.33 732.77"/><path class="cls-11" d="M2250.33,711.75v21H1980a25.27,25.27,0,0,1-25.27-25.28V656.14h240A55.61,55.61,0,0,1,2250.33,711.75Z"/><circle class="cls-7" cx="2039.38" cy="732.77" r="13.46"/><circle class="cls-7" cx="2171.56" cy="732.77" r="13.46"/><line class="cls-11" x1="2243.66" y1="685.33" x2="2067.82" y2="685.33"/><polyline class="cls-40" points="2002.89 709.8 2029.33 692.18 2003.99 676.25"/><polyline class="cls-41" points="1991.77 710.16 2018.21 692.54 1992.86 676.62"/><line class="cls-42" x1="1180.5" y1="383.11" x2="1180.5" y2="330"/><line class="cls-42" x1="1156.75" y1="351.5" x2="1204.25" y2="351.5"/><rect class="cls-14" x="1212.54" y="455.44" width="40.28" height="75.77" transform="translate(2465.37 986.64) rotate(180)"/><rect class="cls-4" x="1108.18" y="455.44" width="40.28" height="75.77"/><rect class="cls-4" x="1148.46" y="455.44" width="64.08" height="75.77"/><rect class="cls-4" x="1084.46" y="515.51" width="192.09" height="75.77"/><rect class="cls-14" x="1180.5" y="515.51" width="96.05" height="75.77"/><polygon class="cls-4" points="1227.92 515.38 1180.5 496.19 1133.08 515.38 1133.08 591.32 1227.92 591.32 1227.92 515.38"/><path class="cls-34" d="M1180.5,383.11a72.32,72.32,0,0,0-72.32,72.33h144.65A72.33,72.33,0,0,0,1180.5,383.11Z"/><line class="cls-31" x1="1180.5" y1="526.6" x2="1180.5" y2="567.7"/><line class="cls-31" x1="1192.38" y1="526.6" x2="1192.38" y2="567.7"/><line class="cls-31" x1="1168.63" y1="526.6" x2="1168.63" y2="567.7"/><ellipse class="cls-38" cx="3111.95" cy="789.96" rx="110.22" ry="6.98"/><circle class="cls-12" cx="3068.81" cy="760.27" r="24.65"/><circle class="cls-12" cx="3169.09" cy="760.27" r="24.65"/><polygon class="cls-33" points="3083.35 720.85 3133.25 720.85 3133.25 760.27 3083.35 720.85"/><polyline class="cls-33" points="3133.25 720.85 3154.72 720.85 3154.72 705.69"/><path class="cls-33" d="M3068.81,760.27V705.86a12.79,12.79,0,0,1,12.79-12.79h15"/><line class="cls-33" x1="3141.87" y1="705.69" x2="3167.57" y2="705.69"/><rect class="cls-43" x="720.01" y="451.1" width="237.99" height="116.24" rx="17.93"/><rect class="cls-44" x="795.54" y="405.85" width="86.91" height="206.74" rx="6.28" transform="translate(1348.22 -329.78) rotate(90)"/><path class="cls-23" d="M863.34,501a3.24,3.24,0,0,0-.19-1.12,2.29,2.29,0,0,0-.68-.91,5.42,5.42,0,0,0-1.36-.79,22.91,22.91,0,0,0-2.22-.8,21,21,0,0,1-2.75-1,9.1,9.1,0,0,1-2.16-1.33,5.89,5.89,0,0,1-1.43-1.74,4.85,4.85,0,0,1-.51-2.26,5,5,0,0,1,.54-2.32,5.49,5.49,0,0,1,1.51-1.83,7.22,7.22,0,0,1,2.33-1.2,9.75,9.75,0,0,1,3-.43,9.23,9.23,0,0,1,3.16.51,7.1,7.1,0,0,1,2.36,1.38,6,6,0,0,1,2,4.47h-3.6a3.9,3.9,0,0,0-.24-1.39,3,3,0,0,0-.72-1.1,3.39,3.39,0,0,0-1.23-.72,5.18,5.18,0,0,0-1.76-.26,5.83,5.83,0,0,0-1.66.21,3.52,3.52,0,0,0-1.16.6,2.35,2.35,0,0,0-.69.92,2.86,2.86,0,0,0-.22,1.14,2.28,2.28,0,0,0,1.09,1.93,11.53,11.53,0,0,0,3.34,1.43,19.66,19.66,0,0,1,3,1.15,8.75,8.75,0,0,1,2.14,1.42,5.11,5.11,0,0,1,1.27,1.79A5.83,5.83,0,0,1,867,501a5.22,5.22,0,0,1-.52,2.37,5,5,0,0,1-1.49,1.79,7.13,7.13,0,0,1-2.33,1.13,11.24,11.24,0,0,1-3.06.39,11,11,0,0,1-3-.41A8.21,8.21,0,0,1,854,505a6.55,6.55,0,0,1-1.87-2,5.7,5.7,0,0,1-.7-2.89H855a3.88,3.88,0,0,0,.35,1.7,3.27,3.27,0,0,0,1,1.15,4,4,0,0,0,1.44.66,7.26,7.26,0,0,0,1.79.21,4.44,4.44,0,0,0,2.83-.77A2.44,2.44,0,0,0,863.34,501Z"/><path class="cls-23" d="M885.35,485.56v13.92a7.44,7.44,0,0,1-.61,3.13,6.29,6.29,0,0,1-1.66,2.25,7.14,7.14,0,0,1-2.47,1.35,10,10,0,0,1-3,.45,10.21,10.21,0,0,1-3.09-.45,7,7,0,0,1-2.47-1.35,6.22,6.22,0,0,1-1.63-2.25,7.77,7.77,0,0,1-.58-3.13V485.56h3.6v13.92a5.71,5.71,0,0,0,.29,1.92,3.57,3.57,0,0,0,.84,1.34,3.39,3.39,0,0,0,1.31.78,6.15,6.15,0,0,0,3.47,0,3.36,3.36,0,0,0,1.32-.78,3.68,3.68,0,0,0,.83-1.34,5.71,5.71,0,0,0,.29-1.92V485.56Z"/><path class="cls-23" d="M889.21,506.37V485.56h6.15a10,10,0,0,1,3.81.7,8.4,8.4,0,0,1,3,2,9.17,9.17,0,0,1,1.92,3.13,11.49,11.49,0,0,1,.69,4.08v1a11.73,11.73,0,0,1-.68,4.09,8.89,8.89,0,0,1-1.93,3.11,8.49,8.49,0,0,1-3,2,10.48,10.48,0,0,1-3.92.7Zm3.62-17.9v15h2.36a6.72,6.72,0,0,0,2.59-.48,4.82,4.82,0,0,0,1.85-1.38,6,6,0,0,0,1.1-2.21,10.51,10.51,0,0,0,.38-2.93v-1.05a7.92,7.92,0,0,0-1.48-5.18,5.21,5.21,0,0,0-4.27-1.79Z"/><path class="cls-23" d="M857.71,533.59h-3.62l-9.28-14.76v14.76H841.2V512.78h3.61l9.31,14.82V512.78h3.59Z"/><path class="cls-23" d="M878.6,523.73A13.32,13.32,0,0,1,878,528a9,9,0,0,1-1.75,3.19,7.68,7.68,0,0,1-2.71,2,9.15,9.15,0,0,1-7,0,7.88,7.88,0,0,1-2.74-2A9.23,9.23,0,0,1,862,528a13.32,13.32,0,0,1-.63-4.25v-1.06a13.43,13.43,0,0,1,.63-4.26,9.68,9.68,0,0,1,1.77-3.2,7.66,7.66,0,0,1,2.73-2,9.15,9.15,0,0,1,7,0,7.61,7.61,0,0,1,2.74,2,9.3,9.3,0,0,1,1.75,3.2,13.43,13.43,0,0,1,.63,4.26ZM875,522.64a12.4,12.4,0,0,0-.34-3.08,6.58,6.58,0,0,0-1-2.24,4.2,4.2,0,0,0-1.58-1.36,4.69,4.69,0,0,0-2.12-.47,4.62,4.62,0,0,0-2.09.47,4.36,4.36,0,0,0-1.58,1.36,7,7,0,0,0-1,2.24,12.37,12.37,0,0,0-.35,3.08v1.09a12.51,12.51,0,0,0,.35,3.09,6.86,6.86,0,0,0,1,2.25,4.42,4.42,0,0,0,1.59,1.37,4.69,4.69,0,0,0,2.1.47,4.24,4.24,0,0,0,3.69-1.83,9.19,9.19,0,0,0,1.3-5.35Z"/><path class="cls-23" d="M889.85,525.57h-4v8H882.2V512.78h7.32a11.17,11.17,0,0,1,3.19.41,6.49,6.49,0,0,1,2.36,1.2,5,5,0,0,1,1.47,2,7,7,0,0,1,.5,2.72,5.83,5.83,0,0,1-1,3.49,6.37,6.37,0,0,1-2.81,2.17l4.68,8.68v.18H894Zm-4-2.9h3.71a4.86,4.86,0,0,0,1.7-.26,3.39,3.39,0,0,0,1.22-.71,3,3,0,0,0,.73-1.09,3.85,3.85,0,0,0,.24-1.38,4.13,4.13,0,0,0-.23-1.45,2.77,2.77,0,0,0-.7-1.12,3.07,3.07,0,0,0-1.21-.72,5.65,5.65,0,0,0-1.76-.25h-3.7Z"/><path class="cls-23" d="M900.47,533.59V512.78h6.15a10,10,0,0,1,3.81.7,8.54,8.54,0,0,1,3,2,9.26,9.26,0,0,1,1.92,3.13,11.51,11.51,0,0,1,.69,4.09v1a11.72,11.72,0,0,1-.68,4.08,9,9,0,0,1-1.93,3.11,8.57,8.57,0,0,1-3,2,10.52,10.52,0,0,1-3.92.7Zm3.62-17.9v15h2.36a6.45,6.45,0,0,0,2.58-.48,4.74,4.74,0,0,0,1.85-1.38,6,6,0,0,0,1.11-2.2,10.63,10.63,0,0,0,.37-2.93v-1.06a8,8,0,0,0-1.47-5.18,5.21,5.21,0,0,0-4.27-1.79Z"/><rect class="cls-45" x="756.14" y="481.84" width="57.68" height="18.29"/><path class="cls-46" d="M794,534.72,785,540l-9-5.23a40,40,0,0,1-19.87-34.59h57.68A40,40,0,0,1,794,534.72Z"/><line class="cls-44" x1="763.98" y1="490.99" x2="805.98" y2="490.99"/><path class="cls-23" d="M778.6,526.4h-3.28V510.55l-4.85,1.65v-2.78l7.71-2.83h.42Z"/><path class="cls-23" d="M786.34,516.61l1.07-9.95H798v2.84h-7.86l-.55,4.72a7.73,7.73,0,0,1,1.27-.53,6,6,0,0,1,1.83-.25,6.4,6.4,0,0,1,2.5.46,4.88,4.88,0,0,1,1.88,1.33,6,6,0,0,1,1.16,2.09,8.81,8.81,0,0,1,.41,2.77,8.24,8.24,0,0,1-.4,2.57,5.8,5.8,0,0,1-1.21,2.09,5.62,5.62,0,0,1-2,1.4,7.16,7.16,0,0,1-2.86.52,7.65,7.65,0,0,1-2.35-.36,6,6,0,0,1-2-1.07,5.5,5.5,0,0,1-1.44-1.75,5.81,5.81,0,0,1-.63-2.42h3.18a3.48,3.48,0,0,0,1,2.2,3.15,3.15,0,0,0,2.2.77,3.1,3.1,0,0,0,1.4-.3,2.82,2.82,0,0,0,1-.83,4.09,4.09,0,0,0,.6-1.28,6,6,0,0,0,.2-1.63,5.21,5.21,0,0,0-.22-1.56,3.45,3.45,0,0,0-.67-1.24,3,3,0,0,0-1.09-.82,3.83,3.83,0,0,0-1.53-.29,4.78,4.78,0,0,0-1,.09,3.08,3.08,0,0,0-.76.25,3.3,3.3,0,0,0-.59.38,5.5,5.5,0,0,0-.53.45Z"/><path class="cls-36" d="M2597.73,580.56h28.12a0,0,0,0,1,0,0V628.1a14.06,14.06,0,0,1-14.06,14.06h0a14.06,14.06,0,0,1-14.06-14.06V580.56A0,0,0,0,1,2597.73,580.56Z"/><path class="cls-7" d="M2625.85,580.56H2654a0,0,0,0,1,0,0V628.1a14.06,14.06,0,0,1-14.06,14.06h0a14.06,14.06,0,0,1-14.06-14.06V580.56A0,0,0,0,1,2625.85,580.56Z"/><path class="cls-36" d="M2654,580.56h28.12a0,0,0,0,1,0,0V628.1A14.06,14.06,0,0,1,2668,642.16h0A14.06,14.06,0,0,1,2654,628.1V580.56A0,0,0,0,1,2654,580.56Z"/><path class="cls-7" d="M2682.09,580.56h28.12a0,0,0,0,1,0,0V628.1a14.06,14.06,0,0,1-14.06,14.06h0a14.06,14.06,0,0,1-14.06-14.06V580.56A0,0,0,0,1,2682.09,580.56Z"/><path class="cls-36" d="M2710.22,580.56h28.12a0,0,0,0,1,0,0V628.1a14.06,14.06,0,0,1-14.06,14.06h0a14.06,14.06,0,0,1-14.06-14.06V580.56A0,0,0,0,1,2710.22,580.56Z"/><rect class="cls-8" x="235.48" y="540.23" width="88.61" height="162.88"/><rect class="cls-47" x="381.49" y="663.48" width="62.79" height="69.33" transform="translate(-285.25 1111.04) rotate(-90)"/><line class="cls-30" x1="394.47" y1="698.14" x2="431.31" y2="698.14"/><rect class="cls-47" x="297.61" y="566.24" width="62.79" height="105.09" transform="translate(-289.78 947.79) rotate(-90)"/><line class="cls-30" x1="317.63" y1="633.23" x2="317.63" y2="608.42"/><line class="cls-30" x1="346.31" y1="633.23" x2="346.31" y2="608.42"/><rect class="cls-47" x="172.68" y="564.64" width="62.79" height="105.09" transform="translate(408.16 1234.36) rotate(180)"/><line class="cls-30" x1="218.52" y1="628.56" x2="193.71" y2="628.56"/><line class="cls-30" x1="218.52" y1="599.87" x2="193.71" y2="599.87"/><rect class="cls-8" x="279.78" y="684.63" width="98.45" height="32.24"/><rect class="cls-47" x="191.17" y="669.95" width="88.61" height="46.8"/><line class="cls-30" x1="209.59" y1="697.14" x2="246.42" y2="697.14"/><rect class="cls-47" x="301.93" y="540.23" width="54.15" height="46.8"/><line class="cls-30" x1="328.44" y1="553.38" x2="328.44" y2="575.89"/><rect class="cls-47" x="208.4" y="491.99" width="54.15" height="46.8"/><line class="cls-30" x1="234.91" y1="505.14" x2="234.91" y2="527.65"/><rect class="cls-47" x="122.21" y="584.25" width="54.15" height="46.8" transform="translate(-458.38 756.94) rotate(-90)"/><line class="cls-30" x1="139.03" y1="608.22" x2="161.53" y2="608.22"/><circle class="cls-32" cx="1913.91" cy="505.6" r="29.19"/><line class="cls-22" x1="1913.91" y1="476.41" x2="1913.91" y2="521.09"/><polyline class="cls-22" points="1894.51 501.69 1913.91 521.09 1933.31 501.69"/><rect class="cls-6" x="2727.21" y="515.99" width="54.3" height="12.19"/><rect class="cls-6" x="2752.94" y="503.8" width="54.3" height="12.19"/><rect class="cls-6" x="3012.68" y="574.43" width="54.3" height="12.19"/><rect class="cls-6" x="3038.41" y="562.25" width="54.3" height="12.19"/><ellipse class="cls-20" cx="3140.29" cy="480.12" rx="15.51" ry="9.06"/><polyline class="cls-33" points="3151.64 480.12 3151.64 414.76 3198.55 392.86 3198.55 458.22"/><ellipse class="cls-20" cx="3187.19" cy="458.22" rx="15.51" ry="9.06"/><rect class="cls-48" x="1472.49" y="574.52" width="40.92" height="33.96"/><rect class="cls-48" x="1472.49" y="608.48" width="40.92" height="33.96"/><rect class="cls-49" x="1472.49" y="642.44" width="40.92" height="33.96"/><rect class="cls-48" x="1513.4" y="574.52" width="40.92" height="33.96"/><rect class="cls-49" x="1513.4" y="608.48" width="40.92" height="33.96"/><rect class="cls-36" x="1513.4" y="642.44" width="40.92" height="33.96"/><rect class="cls-49" x="1554.32" y="574.52" width="40.92" height="33.96"/><rect class="cls-36" x="1554.32" y="608.48" width="40.92" height="33.96"/><rect class="cls-50" x="1554.32" y="642.44" width="40.92" height="33.96"/><rect class="cls-36" x="1595.23" y="574.52" width="40.92" height="33.96"/><rect class="cls-50" x="1595.23" y="608.48" width="40.92" height="33.96"/><rect class="cls-51" x="1595.23" y="642.44" width="40.92" height="33.96"/><rect class="cls-50" x="1636.15" y="574.52" width="40.92" height="33.96"/><rect class="cls-51" x="1636.15" y="608.48" width="40.92" height="33.96"/><rect class="cls-5" x="1636.15" y="642.44" width="40.92" height="33.96"/><rect class="cls-51" x="1677.06" y="574.52" width="40.92" height="33.96"/><rect class="cls-5" x="1677.06" y="608.48" width="40.92" height="33.96"/><rect class="cls-52" x="1677.06" y="642.44" width="40.92" height="33.96"/><polyline class="cls-11" points="1468.08 671.34 1468.08 574.52 1717.97 574.52 1717.97 693.39 1874.72 693.39"/><path class="cls-6" d="M1468.08,690.84a13.46,13.46,0,1,0-13.47-13.46,13.46,13.46,0,0,0,13.47,13.46"/><path class="cls-6" d="M1884.72,706.49A13.47,13.47,0,1,0,1871.26,693a13.47,13.47,0,0,0,13.46,13.46"/><line class="cls-12" x1="2409.94" y1="282.41" x2="2457.49" y2="234.86"/><circle class="cls-36" cx="2457.49" cy="234.86" r="15.27"/><line class="cls-12" x1="2409.94" y1="282.41" x2="2457.49" y2="329.95"/><circle class="cls-36" cx="2409.94" cy="282.41" r="15.27"/><line class="cls-12" x1="2409.94" y1="377.5" x2="2457.49" y2="329.95"/><circle class="cls-36" cx="2409.94" cy="377.5" r="15.27"/><circle class="cls-36" cx="2457.49" cy="329.95" r="15.27"/><line class="cls-33" x1="363.48" y1="293.88" x2="536" y2="293.88"/><circle class="cls-53" cx="547.82" cy="293.88" r="13.46"/><path class="cls-6" d="M286,302.11H313.7l13.53,23.68a2.05,2.05,0,0,0,1.78,1h8.44a2.07,2.07,0,0,0,2-2.63l-6.32-22.09h20.25l5.56,7.42a2.06,2.06,0,0,0,1.65.82h5.15a2.05,2.05,0,0,0,2-2.56l-4-13.91,4-13.92a2.05,2.05,0,0,0-2-2.56h-5.15a2.06,2.06,0,0,0-1.65.82l-5.56,7.42H333.11l6.32-22.09a2.07,2.07,0,0,0-2-2.63H329a2.05,2.05,0,0,0-1.78,1L313.7,285.64H286c-4.56,0-12.36,3.69-12.36,8.24S281.42,302.11,286,302.11Z"/><path d="M525.35,251.49v9.43h-6.41v-9.36l-8.47-15.25h7.09l4.59,8.58,4.58-8.58h7Z"/><path d="M558,250.48c0,6.6-4.66,10.89-10.89,10.89s-10.89-4.29-10.89-10.89V236.31h6.42V251a4.48,4.48,0,1,0,8.95,0V236.31H558Z"/><path d="M569.14,255.14h10.18v5.78H562.73V236.31h6.41Z"/><polyline class="cls-23" points="2800.99 779.98 2743.03 779.98 2743.03 748.07 2711.12 748.07 2711.12 716.15 2679.21 716.15 2679.21 684.24 2605.98 684.24 2605.98 766.48"/><polyline class="cls-23" points="2800.99 779.98 2743.03 779.98 2743.03 748.07 2711.12 748.07 2711.12 716.15 2679.21 716.15 2679.21 684.24 2605.98 684.24 2605.98 766.48"/><polyline class="cls-26" points="2800.99 779.98 2743.03 779.98 2743.03 748.07 2711.12 748.07 2711.12 716.15 2679.21 716.15 2679.21 684.24 2605.98 684.24 2605.98 766.48"/><circle class="cls-6" cx="2814.45" cy="779.98" r="11.29"/><circle class="cls-6" cx="2605.98" cy="779.98" r="11.29"/><path class="cls-54" d="M1352.09,644.83l-21.93,73.51h56l-21.92-73.51A6.37,6.37,0,0,0,1352.09,644.83Z"/><line class="cls-55" x1="1344.93" y1="668.83" x2="1371.45" y2="668.83"/><line class="cls-55" x1="1339.75" y1="686.19" x2="1376.63" y2="686.19"/><path class="cls-56" d="M1352.09,644.83l-21.93,73.51h56l-21.92-73.51A6.37,6.37,0,0,0,1352.09,644.83Z"/><line class="cls-57" x1="1320.47" y1="718.34" x2="1395.91" y2="718.34"/><polyline class="cls-42" points="1234.15 230.62 1234.15 278.9 1189.87 234.62 1145.59 278.9 1101.31 234.62 1057.03 278.9 1012.75 234.62 1012.75 282.91"/><rect class="cls-58" x="2323.06" y="656.14" width="213.06" height="68.53"/><line class="cls-59" x1="2536.12" y1="690.2" x2="2323.06" y2="690.2"/><rect class="cls-11" x="2323.06" y="656.14" width="211.87" height="68.53"/></g></g></g></svg>