<svg xmlns="http://www.w3.org/2000/svg" xmlns:xlink="http://www.w3.org/1999/xlink" viewBox="0 0 3692.08 780.74"><defs><style>.cls-1,.cls-12,.cls-14,.cls-16,.cls-18,.cls-20,.cls-6,.cls-7{fill:none;}.cls-1,.cls-12{stroke:#232323;}.cls-1{stroke-miterlimit:10;}.cls-13,.cls-15,.cls-19,.cls-2,.cls-3,.cls-4,.cls-5,.cls-9{fill:#232323;}.cls-13,.cls-14,.cls-15,.cls-16,.cls-18,.cls-19,.cls-2,.cls-20,.cls-3,.cls-4,.cls-6,.cls-7,.cls-9{stroke:#fff;}.cls-12,.cls-13,.cls-14,.cls-15,.cls-16,.cls-18,.cls-19,.cls-2,.cls-20,.cls-3,.cls-4,.cls-6,.cls-7,.cls-9{stroke-linejoin:round;}.cls-2,.cls-6{stroke-width:14px;}.cls-20,.cls-3,.cls-7{stroke-width:8px;}.cls-12,.cls-16,.cls-4{stroke-width:6px;}.cls-17,.cls-8{opacity:0.6;}.cls-9{stroke-width:12px;}.cls-10{fill:#fff;}.cls-11{clip-path:url(#clip-path);}.cls-13,.cls-14{stroke-width:10px;}.cls-18{stroke-width:4px;}.cls-19{stroke-width:3px;}.cls-20{stroke-linecap:round;}</style><clipPath id="clip-path"><circle class="cls-1" cx="550.79" cy="324.33" r="100.35"/></clipPath></defs><g id="Layer_2" data-name="Layer 2"><g id="artwork"><circle class="cls-2" cx="3360.66" cy="521.44" r="166.52"/><circle class="cls-3" cx="3360.66" cy="521.44" r="119.37"/><rect class="cls-4" x="3352.69" y="344.65" width="15.94" height="138.98"/><rect class="cls-4" x="3276.81" y="376.08" width="15.94" height="138.98" transform="translate(647.02 2453.2) rotate(-45)"/><rect class="cls-4" x="3245.39" y="451.95" width="15.94" height="138.98" transform="translate(2731.91 3774.8) rotate(-90)"/><rect class="cls-4" x="3276.81" y="527.83" width="15.94" height="138.98" transform="translate(5185.11 3342.37) rotate(-135)"/><rect class="cls-4" x="3352.69" y="559.26" width="15.94" height="138.98" transform="translate(6721.31 1257.49) rotate(-180)"/><rect class="cls-4" x="3428.56" y="527.83" width="15.94" height="138.98" transform="translate(6288.89 -1410.31) rotate(135)"/><rect class="cls-4" x="3459.99" y="451.95" width="15.94" height="138.98" transform="translate(3989.4 -2946.51) rotate(90)"/><rect class="cls-4" x="3428.56" y="376.08" width="15.94" height="138.98" transform="translate(1321.6 -2299.49) rotate(45)"/><circle class="cls-3" cx="3360.66" cy="521.44" r="71.47"/><path class="cls-5" d="M3315.65,618.43h-46.28V519.06H3082V457.25c70,0,201.86-97.68,233.7-235.11h158S3238.89,346.28,3315.65,618.43Z"/><path class="cls-5" d="M3393.26,222.14,3189,519.06H3082V457.25c70,0,201.86-97.68,233.7-235.11Z"/><path class="cls-6" d="M3082,519.06V457.25c70,0,201.86-97.68,233.7-235.11h158s-234.76,124.14-158,396.29h-46.28V519.06Z"/><line class="cls-7" x1="3392.4" y1="222.14" x2="3188.96" y2="519.06"/><polygon class="cls-3" points="3140.29 519.06 3281.78 383.58 3249.34 519.07 3140.29 519.06"/><line class="cls-3" x1="3243.45" y1="420.28" x2="3273" y2="420.28"/><line class="cls-7" x1="3215.62" y1="445.57" x2="3266.94" y2="445.57"/><line class="cls-7" x1="3190.63" y1="470.86" x2="3260.88" y2="470.86"/><line class="cls-7" x1="3165.46" y1="494.96" x2="3253.35" y2="494.96"/><rect class="cls-5" x="2149.73" y="307.59" width="110.94" height="133.76"/><rect class="cls-6" x="2149.73" y="307.59" width="110.94" height="133.76"/><rect class="cls-5" x="2149.73" y="152.26" width="110.94" height="133.76"/><rect class="cls-6" x="2149.73" y="152.26" width="110.94" height="133.76"/><rect class="cls-5" x="2260.67" y="127.35" width="22.92" height="313.99"/><rect class="cls-6" x="2260.67" y="127.35" width="22.92" height="313.99"/><g class="cls-8"><polygon points="2156.73 152.25 2208.38 441.35 2142.73 441.35 2142.73 152.25 2156.73 152.25"/></g><rect class="cls-5" x="2126.81" y="127.35" width="22.92" height="313.99"/><rect class="cls-6" x="2126.81" y="127.35" width="22.92" height="313.99"/><rect class="cls-9" x="2564.47" y="179.79" width="135.2" height="227.03"/><rect class="cls-9" x="2632.07" y="179.79" width="67.6" height="227.03"/><rect class="cls-9" x="2591.66" y="141.58" width="80.81" height="265.23"/><rect class="cls-9" x="2632.07" y="141.58" width="40.41" height="265.23"/><rect class="cls-9" x="2615.98" y="110.71" width="32.19" height="304.37"/><path class="cls-3" d="M2650,94.62a17.93,17.93,0,1,0-35.86,0Z"/><circle class="cls-10" cx="550.79" cy="324.33" r="120.98"/><g class="cls-11"><rect class="cls-12" x="408.9" y="306.75" width="35.16" height="35.16" transform="translate(-104.42 396.56) rotate(-45)"/><rect class="cls-12" x="433.76" y="331.61" width="35.16" height="35.16" transform="translate(-114.72 421.43) rotate(-45)"/><rect class="cls-12" x="458.63" y="356.48" width="35.16" height="35.16" transform="translate(-125.02 446.29) rotate(-45)"/><rect class="cls-12" x="483.49" y="381.34" width="35.16" height="35.16" transform="translate(-135.32 471.15) rotate(-45)"/><rect class="cls-12" x="508.35" y="406.2" width="35.16" height="35.16" transform="translate(-145.62 496.01) rotate(-45)"/><rect class="cls-12" x="533.21" y="431.06" width="35.16" height="35.16" transform="translate(-155.91 520.87) rotate(-45)"/><rect class="cls-12" x="433.76" y="281.89" width="35.16" height="35.16" transform="translate(-79.56 406.86) rotate(-45)"/><rect class="cls-12" x="458.63" y="306.75" width="35.16" height="35.16" transform="translate(-89.86 431.72) rotate(-45)"/><rect class="cls-12" x="483.49" y="331.61" width="35.16" height="35.16" transform="translate(-100.16 456.59) rotate(-45)"/><rect class="cls-12" x="508.35" y="356.48" width="35.16" height="35.16" transform="translate(-110.46 481.45) rotate(-45)"/><rect class="cls-12" x="533.21" y="381.34" width="35.16" height="35.16" transform="translate(-120.75 506.31) rotate(-45)"/><rect class="cls-12" x="558.07" y="406.2" width="35.16" height="35.16" transform="translate(-131.05 531.17) rotate(-45)"/><rect class="cls-12" x="458.63" y="257.03" width="35.16" height="35.16" transform="translate(-54.7 417.16) rotate(-45)"/><rect class="cls-12" x="483.49" y="281.89" width="35.16" height="35.16" transform="translate(-65 442.02) rotate(-45)"/><rect class="cls-12" x="508.35" y="306.75" width="35.16" height="35.16" transform="translate(-75.3 466.88) rotate(-45)"/><rect class="cls-12" x="533.21" y="331.61" width="35.16" height="35.16" transform="translate(-85.59 491.74) rotate(-45)"/><rect class="cls-12" x="558.07" y="356.48" width="35.16" height="35.16" transform="translate(-95.89 516.61) rotate(-45)"/><rect class="cls-12" x="582.93" y="381.34" width="35.16" height="35.16" transform="translate(-106.19 541.47) rotate(-45)"/><rect class="cls-12" x="483.49" y="232.17" width="35.16" height="35.16" transform="translate(-29.84 427.46) rotate(-45)"/><rect class="cls-12" x="508.35" y="257.03" width="35.16" height="35.16" transform="translate(-40.14 452.32) rotate(-45)"/><rect class="cls-12" x="533.21" y="281.89" width="35.16" height="35.16" transform="translate(-50.43 477.18) rotate(-45)"/><rect class="cls-12" x="558.07" y="306.75" width="35.16" height="35.16" transform="translate(-60.73 502.04) rotate(-45)"/><rect class="cls-12" x="582.93" y="331.61" width="35.16" height="35.16" transform="translate(-71.03 526.9) rotate(-45)"/><rect class="cls-12" x="607.8" y="356.48" width="35.16" height="35.16" transform="translate(-81.33 551.77) rotate(-45)"/><rect class="cls-12" x="508.35" y="207.31" width="35.16" height="35.16" transform="translate(-4.98 437.76) rotate(-45)"/><rect class="cls-12" x="533.21" y="232.17" width="35.16" height="35.16" transform="translate(-15.27 462.62) rotate(-45)"/><rect class="cls-12" x="558.07" y="257.03" width="35.16" height="35.16" transform="translate(-25.57 487.48) rotate(-45)"/><rect class="cls-12" x="582.93" y="281.89" width="35.16" height="35.16" transform="translate(-35.87 512.34) rotate(-45)"/><rect class="cls-12" x="607.8" y="306.75" width="35.16" height="35.16" transform="translate(-46.17 537.2) rotate(-45)"/><rect class="cls-12" x="632.66" y="331.61" width="35.16" height="35.16" transform="translate(-56.47 562.06) rotate(-45)"/><rect class="cls-12" x="533.21" y="182.44" width="35.16" height="35.16" transform="translate(19.88 448.05) rotate(-45)"/><rect class="cls-12" x="558.07" y="207.31" width="35.16" height="35.16" transform="translate(9.59 472.92) rotate(-45)"/><rect class="cls-12" x="582.93" y="232.17" width="35.16" height="35.16" transform="translate(-0.71 497.78) rotate(-45)"/><rect class="cls-12" x="607.8" y="257.03" width="35.16" height="35.16" transform="translate(-11.01 522.64) rotate(-45)"/><rect class="cls-12" x="632.66" y="281.89" width="35.16" height="35.16" transform="translate(-21.31 547.5) rotate(-45)"/><rect class="cls-12" x="657.52" y="306.75" width="35.16" height="35.16" transform="translate(-31.61 572.36) rotate(-45)"/></g><circle class="cls-1" cx="550.79" cy="324.33" r="100.35"/><circle class="cls-12" cx="550.79" cy="324.33" r="100.35"/><rect class="cls-5" x="2734.34" y="251.16" width="62.21" height="403.34"/><rect class="cls-5" x="2630.42" y="319.41" width="112.36" height="335.1"/><rect class="cls-5" x="2536.12" y="381.54" width="135.92" height="272.96"/><rect class="cls-2" x="1679.95" y="132.9" width="137.2" height="334.87"/><rect class="cls-13" x="1794.31" y="251.6" width="22.84" height="216.16"/><rect class="cls-14" x="1678.7" y="251.6" width="22.84" height="216.16"/><rect class="cls-15" x="1771.83" y="132.9" width="44.96" height="118.71"/><rect class="cls-6" x="1679.95" y="132.9" width="137.2" height="334.87"/><polygon class="cls-13" points="1806.98 132.9 1690.12 132.9 1711.3 77.94 1722.97 98.69 1774.12 98.69 1785.79 77.94 1806.98 132.9"/><polygon class="cls-13" points="1771.83 132.9 1816.78 177.85 1816.78 132.9 1771.83 132.9"/><polygon class="cls-13" points="1725.27 132.9 1680.31 177.85 1680.31 132.9 1725.27 132.9"/><polyline class="cls-14" points="1771.83 132.9 1771.83 251.6 1816.78 251.6"/><polyline class="cls-14" points="1725.27 132.9 1725.27 251.6 1680.31 251.6"/><circle class="cls-2" cx="1644.24" cy="414.26" r="118.58"/><rect class="cls-5" x="1420.37" y="124.37" width="163.98" height="274.95"/><rect class="cls-5" y="619.77" width="3692.08" height="160.97"/><rect class="cls-5" x="1426.21" y="399.32" width="249.67" height="232.57"/><rect class="cls-5" x="1244.3" y="496.77" width="797.84" height="135.12"/><rect class="cls-5" x="1321.36" y="335.75" width="99.01" height="296.14"/><polygon class="cls-2" points="2061.26 154.24 2061.26 496.77 1913.91 496.77 1913.91 154.24 1967.21 154.24 1967.21 194.99 2007.97 194.99 2007.97 154.24 2061.26 154.24"/><polygon class="cls-2" points="1976.43 55.51 1961.69 55.51 1913.91 128.26 1976.43 128.26 1976.43 55.51"/><polygon class="cls-2" points="1998.75 55.51 2013.5 55.51 2061.27 128.26 1998.75 128.26 1998.75 55.51"/><line class="cls-6" x1="1987.59" y1="222.14" x2="1987.59" y2="297.73"/><line class="cls-6" x1="1962" y1="222.14" x2="1962" y2="297.73"/><line class="cls-6" x1="2013.17" y1="222.14" x2="2013.17" y2="297.73"/><polygon class="cls-5" points="1975.58 351.38 1914.5 288.09 1852.25 351.38 1852.25 507.5 1975.58 507.5 1975.58 351.38"/><rect class="cls-5" x="1975.58" y="441.35" width="345.42" height="315.81"/><rect class="cls-5" x="1943.1" y="441.35" width="96.55" height="96.55"/><rect class="cls-5" x="1975.58" y="586.17" width="588.89" height="170.99"/><line class="cls-16" x1="1420.37" y1="147.64" x2="1584.35" y2="147.64"/><line class="cls-16" x1="1420.37" y1="170.22" x2="1584.35" y2="170.22"/><line class="cls-16" x1="1420.37" y1="192.81" x2="1584.35" y2="192.81"/><line class="cls-16" x1="1420.37" y1="215.4" x2="1584.35" y2="215.4"/><line class="cls-16" x1="1420.37" y1="237.99" x2="1584.35" y2="237.99"/><line class="cls-16" x1="1420.37" y1="260.58" x2="1584.35" y2="260.58"/><line class="cls-16" x1="1420.37" y1="283.16" x2="1584.35" y2="283.16"/><line class="cls-16" x1="1420.37" y1="305.75" x2="1584.35" y2="305.75"/><rect class="cls-5" x="417.29" y="415.46" width="322.67" height="137.6"/><path class="cls-16" d="M417.29,442.94c32.27,0,32.27,20,64.53,20s32.27-20,64.53-20,32.27,20,64.54,20,32.27-20,64.53-20,32.27,20,64.54,20"/><path class="cls-16" d="M417.29,472.9c32.27,0,32.27,20,64.53,20s32.27-20,64.53-20,32.27,20,64.54,20,32.27-20,64.53-20,32.27,20,64.54,20"/><path class="cls-16" d="M417.29,502.86c32.27,0,32.27,20,64.53,20s32.27-20,64.53-20,32.27,20,64.54,20,32.27-20,64.53-20,32.27,20,64.54,20"/><rect class="cls-7" x="794.79" y="167.68" width="26.88" height="26.88"/><rect class="cls-7" x="794.79" y="140.8" width="26.88" height="26.88"/><rect class="cls-7" x="794.79" y="113.91" width="26.88" height="26.88"/><rect class="cls-7" x="821.68" y="113.91" width="26.88" height="26.88"/><rect class="cls-7" x="767.91" y="113.91" width="26.88" height="26.88"/><rect class="cls-7" x="794.79" y="87.03" width="26.88" height="26.88"/><path class="cls-2" d="M808.23,199.72c-119.14,0-215.73,96.59-215.73,215.74H1024C1024,296.31,927.38,199.72,808.23,199.72Z"/><rect class="cls-5" x="3081.95" y="519.06" width="187.43" height="121.98"/><rect class="cls-5" x="2955.12" y="387.71" width="126.83" height="253.33"/><rect class="cls-5" x="2772.03" y="463.65" width="309.92" height="177.4"/><rect class="cls-5" x="739.96" y="329.56" width="504.34" height="319.9"/><g class="cls-8"><polygon points="2807.55 463.64 2840.52 579.53 2793.55 579.53 2793.55 463.64 2807.55 463.64"/></g><rect class="cls-5" y="552.57" width="739.96" height="96.89" transform="translate(739.96 1202.03) rotate(180)"/><rect class="cls-5" x="1006.38" y="167.68" width="237.92" height="161.88"/><polyline class="cls-6" points="94.94 553.75 417.29 553.75 417.29 415.46 739.96 415.46"/><circle class="cls-4" cx="739.96" cy="628.74" r="13.46"/><circle class="cls-4" cx="81.48" cy="553.05" r="13.46"/><circle class="cls-4" cx="943.29" cy="559.64" r="13.46"/><path class="cls-4" d="M1205,619a13.47,13.47,0,1,0-13.46-13.47A13.46,13.46,0,0,0,1205,619"/><polyline class="cls-6" points="739.96 615.28 739.96 329.56 1006.38 329.56 1006.38 167.68 1244.3 167.68 1244.3 486.76"/><polyline class="cls-6" points="1584.35 399.32 1584.35 124.38 1420.37 124.38 1420.37 335.75 1321.36 335.75 1321.36 489.17 943.29 489.17 943.29 546.18"/><g class="cls-8"><polygon points="1533.63 124.38 1566.6 399.32 1519.63 399.32 1519.63 124.38 1533.63 124.38"/></g><polyline class="cls-6" points="2320.99 514.3 2535.01 514.3 2535.01 382 2649.17 382 2649.17 317.15 2727.33 317.15 2727.33 251.16 2800.55 251.16 2800.55 580.05 2946.78 580.05"/><polyline class="cls-6" points="1218.46 604.96 1426.21 604.96 1426.21 399.32 1674.98 399.32 1674.98 496.77 1848.99 496.77 1848.99 351.38 1912.29 288.09 1975.58 351.38 1975.58 441.35 2320.99 441.35 2320.99 628.74"/><polyline class="cls-6" points="2800.55 463.64 2955.12 463.64 2955.12 387.71 3081.95 387.71 3081.95 519.07 3269.37 519.07 3269.37 618.43 3605.1 618.43"/><circle class="cls-4" cx="3618.56" cy="618.43" r="13.46"/><circle class="cls-4" cx="2320.99" cy="640.82" r="13.46"/><rect class="cls-7" x="1012.75" y="96.12" width="44.28" height="44.28"/><rect class="cls-7" x="1057.03" y="96.12" width="44.28" height="44.28"/><rect class="cls-7" x="1101.31" y="96.12" width="44.28" height="44.28"/><rect class="cls-7" x="1145.59" y="96.12" width="44.28" height="44.28"/><rect class="cls-7" x="1189.87" y="96.12" width="44.28" height="44.28"/><path class="cls-10" d="M1079.47,25.42h-10.29v4.7h8.35V35.9h-8.35v8.35h-6.42V19.64h16.71Z"/><path class="cls-10" d="M1094.8,42.2H1086l-.89,2h-6.9l11.19-25.06h2.05l11.19,25.06h-6.9Zm-4.4-10.85-2.16,5.71h4.29Z"/><path class="cls-10" d="M1119.75,44.25l-5.55-7.64h-2.65v7.64h-6.42V19.64h9.66c5.41,0,9.51,3.25,9.51,8.47a8,8,0,0,1-3.88,7l6.49,9.13ZM1111.55,31h3.28a2.75,2.75,0,0,0,3-2.9,2.75,2.75,0,0,0-3-2.88h-3.28Z"/><path class="cls-10" d="M1135.87,44.25h-6.42V19.64h6.42Z"/><path class="cls-10" d="M1162.61,19.64V44.7h-2l-13.35-12.94V44.25h-6.42V19.19h2L1156.19,32V19.64Z"/><path class="cls-10" d="M1184.61,25.42H1174v3.39h7.6v5.37H1174v4.29h11.11v5.78h-17.53V19.64h17.08Z"/><path class="cls-10" d="M1040.57,60.32h-10.29V65h8.35V70.8h-8.35v8.36h-6.42V54.54h16.71Z"/><path class="cls-10" d="M1050.49,79.16h-6.41V54.54h6.41Z"/><path class="cls-10" d="M1077.46,54.54,1066.27,79.6h-2L1053,54.54h7.27l5,12.09,4.93-12.09Z"/><path class="cls-10" d="M1097.08,60.32h-10.67v3.4H1094v5.37h-7.61v4.29h11.11v5.78H1080V54.54h17.08Z"/><path class="cls-10" d="M1126.58,79.16,1121,71.51h-2.64v7.65H1112V54.54h9.66c5.41,0,9.51,3.25,9.51,8.47a8,8,0,0,1-3.88,7l6.49,9.14Zm-8.2-13.24h3.28a2.89,2.89,0,1,0,0-5.78h-3.28Z"/><path class="cls-10" d="M1161,66.85c0,7.27-6,12.75-13.31,12.75s-13.24-5.48-13.24-12.75,5.89-12.75,13.24-12.75S1161,59.61,1161,66.85Zm-20,0c0,4.18,2.76,6.86,6.72,6.86a6.5,6.5,0,0,0,6.71-6.86,6.54,6.54,0,0,0-6.71-6.86A6.46,6.46,0,0,0,1141,66.85Z"/><path class="cls-10" d="M1181.18,59.06l-4.29,3.28c-1.12-1.64-2.2-2.61-4.06-2.61-1.27,0-2.2.44-2.2,1.56,0,.94.59,1.38,2.12,2l2.84,1.19c4.1,1.72,6.3,3.8,6.3,7.42,0,4.85-4,7.68-9,7.68a10.71,10.71,0,0,1-9.81-5.52l4.32-3.28c1.2,1.61,2.73,3.17,5.49,3.17,1.71,0,2.53-.59,2.53-1.79s-.78-1.53-2.5-2.27l-2.53-1.12c-3.92-1.72-6.23-4-6.23-7.42,0-4.4,3.62-7.27,8.61-7.27A8.86,8.86,0,0,1,1181.18,59.06Z"/><path class="cls-10" d="M1202.63,60.32H1192v3.4h7.61v5.37H1192v4.29h11.11v5.78h-17.52V54.54h17.08Z"/><path class="cls-10" d="M1223.59,59.06l-4.29,3.28c-1.12-1.64-2.2-2.61-4.07-2.61-1.26,0-2.2.44-2.2,1.56,0,.94.6,1.38,2.13,2L1218,64.5c4.11,1.72,6.31,3.8,6.31,7.42,0,4.85-4,7.68-9,7.68a10.73,10.73,0,0,1-9.81-5.52l4.33-3.28c1.19,1.61,2.72,3.17,5.48,3.17,1.72,0,2.54-.59,2.54-1.79s-.79-1.53-2.5-2.27l-2.54-1.12c-3.91-1.72-6.22-4-6.22-7.42,0-4.4,3.61-7.27,8.61-7.27A8.86,8.86,0,0,1,1223.59,59.06Z"/><rect class="cls-2" x="1478.09" y="107.05" width="48.55" height="292.28"/><line class="cls-16" x1="1478.09" y1="137.66" x2="1526.63" y2="137.66"/><line class="cls-16" x1="1478.09" y1="160.53" x2="1526.63" y2="160.53"/><line class="cls-16" x1="1478.09" y1="183.39" x2="1526.63" y2="183.39"/><line class="cls-16" x1="1478.09" y1="206.26" x2="1526.63" y2="206.26"/><line class="cls-16" x1="1478.09" y1="229.13" x2="1526.63" y2="229.13"/><line class="cls-16" x1="1478.09" y1="252" x2="1526.63" y2="252"/><line class="cls-16" x1="1478.09" y1="274.87" x2="1526.63" y2="274.87"/><line class="cls-16" x1="1478.09" y1="297.73" x2="1526.63" y2="297.73"/><polygon class="cls-5" points="2509.81 298.02 2509.81 491.3 2345.84 491.3 2345.84 298.02 2386.26 298.02 2386.26 377.49 2469.4 377.49 2469.4 298.02 2509.81 298.02"/><g class="cls-8"><line class="cls-5" x1="2386.26" y1="377.49" x2="2386.26" y2="495.89"/><polygon points="2393.26 377.49 2409.12 495.89 2379.26 495.89 2379.26 377.49 2393.26 377.49"/></g><polygon class="cls-6" points="2509.81 298.02 2509.81 491.3 2345.84 491.3 2345.84 298.02 2386.26 298.02 2386.26 377.49 2469.4 377.49 2469.4 298.02 2509.81 298.02"/><path class="cls-16" d="M2427.92,441.68h0a9.09,9.09,0,0,1,9.09,9.09v41.29a0,0,0,0,1,0,0h-18.19a0,0,0,0,1,0,0V450.77A9.09,9.09,0,0,1,2427.92,441.68Z"/><path class="cls-16" d="M2461.07,441.68h0a9.09,9.09,0,0,1,9.09,9.09v41.29a0,0,0,0,1,0,0H2452a0,0,0,0,1,0,0V450.77A9.09,9.09,0,0,1,2461.07,441.68Z"/><path class="cls-16" d="M2385.69,441.68h18.19a0,0,0,0,1,0,0V483a9.09,9.09,0,0,1-9.09,9.09h0a9.09,9.09,0,0,1-9.09-9.09V441.68A0,0,0,0,1,2385.69,441.68Z" transform="translate(4789.57 933.74) rotate(-180)"/><path class="cls-10" d="M2489.77,394h0a4.65,4.65,0,0,1,4.65,4.65v16.13a0,0,0,0,1,0,0h-9.31a0,0,0,0,1,0,0V398.66A4.65,4.65,0,0,1,2489.77,394Z"/><path class="cls-10" d="M2489.77,356.71h0a4.65,4.65,0,0,1,4.65,4.65v16.13a0,0,0,0,1,0,0h-9.31a0,0,0,0,1,0,0V361.36A4.65,4.65,0,0,1,2489.77,356.71Z"/><path class="cls-10" d="M2489.77,319.41h0a4.65,4.65,0,0,1,4.65,4.65v16.13a0,0,0,0,1,0,0h-9.31a0,0,0,0,1,0,0V324.06A4.65,4.65,0,0,1,2489.77,319.41Z"/><path class="cls-10" d="M2361.23,394h9.31a0,0,0,0,1,0,0v16.13a4.65,4.65,0,0,1-4.65,4.65h0a4.65,4.65,0,0,1-4.65-4.65V394a0,0,0,0,1,0,0Z" transform="translate(4731.77 808.8) rotate(-180)"/><path class="cls-10" d="M2361.23,356.71h9.31a0,0,0,0,1,0,0v16.13a4.65,4.65,0,0,1-4.65,4.65h0a4.65,4.65,0,0,1-4.65-4.65V356.71A0,0,0,0,1,2361.23,356.71Z" transform="translate(4731.77 734.2) rotate(180)"/><path class="cls-10" d="M2361.23,319.41h9.31a0,0,0,0,1,0,0v16.13a4.65,4.65,0,0,1-4.65,4.65h0a4.65,4.65,0,0,1-4.65-4.65V319.41a0,0,0,0,1,0,0Z" transform="translate(4731.77 659.6) rotate(-180)"/><line class="cls-16" x1="2509.81" y1="428.91" x2="2345.84" y2="428.91"/><line class="cls-6" x1="2345.84" y1="298.02" x2="2345.84" y2="271.52"/><line class="cls-6" x1="2386.26" y1="298.02" x2="2386.26" y2="271.52"/><line class="cls-6" x1="2469.56" y1="298.02" x2="2469.56" y2="271.52"/><line class="cls-6" x1="2509.98" y1="298.02" x2="2509.98" y2="271.52"/><rect class="cls-14" x="2981.79" y="308.49" width="72.84" height="58.84"/><path class="cls-2" d="M3047.63,291.56a29.42,29.42,0,1,0-58.84,0Z"/><line class="cls-6" x1="2970.54" y1="291.56" x2="3065.87" y2="291.56"/><path class="cls-16" d="M3018.21,323h0a9.09,9.09,0,0,1,9.09,9.09V352.8a0,0,0,0,1,0,0h-18.19a0,0,0,0,1,0,0V332.11a9.09,9.09,0,0,1,9.09-9.09Z"/><path class="cls-16" d="M3051.25,323h0a9.09,9.09,0,0,0-9.1,9.09V352.8h9.1"/><path class="cls-16" d="M2985.17,323h0a9.09,9.09,0,0,1,9.09,9.09V352.8h-9.09"/><line class="cls-7" x1="3018.21" y1="262.14" x2="3018.21" y2="200.85"/><rect class="cls-3" x="3018.21" y="200.85" width="57.48" height="21.29"/><circle class="cls-4" cx="1502.36" cy="16.46" r="13.46"/><line class="cls-6" x1="1502.36" y1="107.05" x2="1502.36" y2="30.06"/><circle class="cls-13" cx="329.44" cy="309.22" r="43.36"/><line class="cls-6" x1="329.44" y1="399.32" x2="329.44" y2="352.58"/><line class="cls-16" x1="329.44" y1="352.58" x2="329.44" y2="265.85"/><line class="cls-16" x1="329.44" y1="302.3" x2="361.84" y2="285.42"/><line class="cls-16" x1="329.44" y1="331.11" x2="372.44" y2="308.7"/><line class="cls-16" x1="329.44" y1="302.3" x2="297.03" y2="285.42"/><line class="cls-16" x1="329.44" y1="331.11" x2="286.43" y2="308.7"/><circle class="cls-13" cx="2877.84" cy="487.1" r="43.36"/><line class="cls-6" x1="2877.84" y1="577.21" x2="2877.84" y2="530.46"/><line class="cls-16" x1="2877.84" y1="530.46" x2="2877.84" y2="443.74"/><line class="cls-16" x1="2877.84" y1="480.19" x2="2910.24" y2="463.31"/><line class="cls-16" x1="2877.84" y1="508.99" x2="2920.84" y2="486.58"/><line class="cls-16" x1="2877.84" y1="480.19" x2="2845.43" y2="463.31"/><line class="cls-16" x1="2877.84" y1="508.99" x2="2834.83" y2="486.58"/><ellipse class="cls-17" cx="2102.86" cy="610.81" rx="169.63" ry="5.32"/><path class="cls-5" d="M2250.33,573.25v21H1980A25.27,25.27,0,0,1,1954.74,569V517.64h240A55.61,55.61,0,0,1,2250.33,573.25Z"/><path class="cls-5" d="M2250.33,573.25v21H2139.82l-37.29-76.63h92.19A55.61,55.61,0,0,1,2250.33,573.25Z"/><polygon class="cls-5" points="2250.33 594.27 1970.14 594.27 1955.39 574.68 2250.33 573.25 2250.33 594.27"/><path class="cls-6" d="M2250.33,573.25v21H1980A25.27,25.27,0,0,1,1954.74,569V517.64h240A55.61,55.61,0,0,1,2250.33,573.25Z"/><circle class="cls-3" cx="2039.38" cy="594.27" r="13.46"/><circle class="cls-3" cx="2171.56" cy="594.27" r="13.46"/><line class="cls-6" x1="2243.66" y1="546.83" x2="2067.82" y2="546.83"/><line class="cls-7" x1="1180.5" y1="244.61" x2="1180.5" y2="191.5"/><line class="cls-7" x1="1156.75" y1="213" x2="1204.25" y2="213"/><rect class="cls-2" x="1212.54" y="316.94" width="40.28" height="75.77" transform="translate(2465.37 709.64) rotate(180)"/><rect class="cls-2" x="1108.18" y="316.94" width="40.28" height="75.77"/><rect class="cls-2" x="1148.46" y="316.94" width="64.08" height="75.77"/><rect class="cls-2" x="1084.46" y="377.01" width="192.09" height="75.77"/><rect class="cls-2" x="1180.5" y="377.01" width="96.05" height="75.77"/><polygon class="cls-2" points="1227.92 376.88 1180.5 357.69 1133.08 376.88 1133.08 452.82 1227.92 452.82 1227.92 376.88"/><path class="cls-2" d="M1180.5,244.61a72.32,72.32,0,0,0-72.32,72.33h144.65A72.33,72.33,0,0,0,1180.5,244.61Z"/><line class="cls-16" x1="1180.5" y1="388.1" x2="1180.5" y2="429.2"/><line class="cls-16" x1="1192.38" y1="388.1" x2="1192.38" y2="429.2"/><line class="cls-16" x1="1168.63" y1="388.1" x2="1168.63" y2="429.2"/><ellipse class="cls-17" cx="3081.95" cy="649.46" rx="110.22" ry="6.98"/><circle class="cls-7" cx="3038.81" cy="619.77" r="24.65"/><circle class="cls-7" cx="3139.09" cy="619.77" r="24.65"/><polygon class="cls-7" points="3053.35 580.35 3103.25 580.35 3103.25 619.77 3053.35 580.35"/><polyline class="cls-7" points="3103.25 580.35 3124.72 580.35 3124.72 565.19"/><path class="cls-7" d="M3038.81,619.77V565.36a12.79,12.79,0,0,1,12.79-12.79h15"/><line class="cls-7" x1="3111.87" y1="565.19" x2="3137.57" y2="565.19"/><rect class="cls-13" x="720.01" y="312.6" width="237.99" height="116.24" rx="17.93"/><rect class="cls-18" x="795.54" y="267.35" width="86.91" height="206.74" rx="6.28" transform="translate(1209.72 -468.28) rotate(90)"/><path class="cls-10" d="M863.34,362.51a3.24,3.24,0,0,0-.19-1.12,2.29,2.29,0,0,0-.68-.91,5.42,5.42,0,0,0-1.36-.79,20.52,20.52,0,0,0-2.22-.8,21,21,0,0,1-2.75-1,9.43,9.43,0,0,1-2.16-1.33,5.8,5.8,0,0,1-1.43-1.75,4.81,4.81,0,0,1-.51-2.25,5,5,0,0,1,.54-2.32,5.39,5.39,0,0,1,1.51-1.83,7.22,7.22,0,0,1,2.33-1.2,9.75,9.75,0,0,1,3-.43,9.23,9.23,0,0,1,3.16.51,7.1,7.1,0,0,1,2.36,1.38,6,6,0,0,1,2,4.47h-3.6a3.9,3.9,0,0,0-.24-1.39,2.92,2.92,0,0,0-.72-1.1,3.39,3.39,0,0,0-1.23-.72,5.18,5.18,0,0,0-1.76-.26,5.83,5.83,0,0,0-1.66.21,3.52,3.52,0,0,0-1.16.6,2.35,2.35,0,0,0-.69.92,2.86,2.86,0,0,0-.22,1.14,2.28,2.28,0,0,0,1.09,1.93,11.53,11.53,0,0,0,3.34,1.43,18.69,18.69,0,0,1,3,1.15,8.75,8.75,0,0,1,2.14,1.42,5.11,5.11,0,0,1,1.27,1.79,5.83,5.83,0,0,1,.41,2.23,5.22,5.22,0,0,1-.52,2.37,5.11,5.11,0,0,1-1.49,1.79,6.92,6.92,0,0,1-2.33,1.12,10.85,10.85,0,0,1-3.06.4,11,11,0,0,1-3-.41,8.21,8.21,0,0,1-2.62-1.23,6.55,6.55,0,0,1-1.87-2,5.7,5.7,0,0,1-.7-2.89H855a3.88,3.88,0,0,0,.35,1.7,3.27,3.27,0,0,0,1,1.15,4.14,4.14,0,0,0,1.44.66,7.26,7.26,0,0,0,1.79.21,4.44,4.44,0,0,0,2.83-.77A2.45,2.45,0,0,0,863.34,362.51Z"/><path class="cls-10" d="M885.35,347.06V361a7.44,7.44,0,0,1-.61,3.13,6.29,6.29,0,0,1-1.66,2.25,7.14,7.14,0,0,1-2.47,1.35,10,10,0,0,1-3,.45,10.21,10.21,0,0,1-3.09-.45,7,7,0,0,1-2.47-1.35,6.22,6.22,0,0,1-1.63-2.25,7.77,7.77,0,0,1-.58-3.13V347.06h3.6V361a5.75,5.75,0,0,0,.29,1.92,3.57,3.57,0,0,0,.84,1.34,3.39,3.39,0,0,0,1.31.78,6.15,6.15,0,0,0,3.47,0,3.36,3.36,0,0,0,1.32-.78,3.68,3.68,0,0,0,.83-1.34,5.75,5.75,0,0,0,.29-1.92V347.06Z"/><path class="cls-10" d="M889.21,367.87V347.06h6.15a10,10,0,0,1,3.81.7,8.4,8.4,0,0,1,3,2,9.17,9.17,0,0,1,1.92,3.13,11.45,11.45,0,0,1,.69,4.08v1a11.73,11.73,0,0,1-.68,4.09,8.76,8.76,0,0,1-1.93,3.1,8.38,8.38,0,0,1-3,2,10.48,10.48,0,0,1-3.92.7Zm3.62-17.9v15h2.36a6.72,6.72,0,0,0,2.59-.47,4.82,4.82,0,0,0,1.85-1.38,6,6,0,0,0,1.1-2.21,10.51,10.51,0,0,0,.38-2.93v-1.05a7.92,7.92,0,0,0-1.48-5.18,5.21,5.21,0,0,0-4.27-1.79Z"/><path class="cls-10" d="M857.71,395.09h-3.62l-9.28-14.76v14.76H841.2V374.28h3.61l9.31,14.82V374.28h3.59Z"/><path class="cls-10" d="M878.6,385.23a13.32,13.32,0,0,1-.63,4.25,9,9,0,0,1-1.75,3.19,7.68,7.68,0,0,1-2.71,2,9.15,9.15,0,0,1-7,0,7.88,7.88,0,0,1-2.74-2,9.23,9.23,0,0,1-1.79-3.19,13.32,13.32,0,0,1-.63-4.25v-1.06a13.43,13.43,0,0,1,.63-4.26,9.68,9.68,0,0,1,1.77-3.2,7.66,7.66,0,0,1,2.73-2,9.15,9.15,0,0,1,7,0,7.61,7.61,0,0,1,2.74,2,9.3,9.3,0,0,1,1.75,3.2,13.43,13.43,0,0,1,.63,4.26ZM875,384.14a12.4,12.4,0,0,0-.34-3.08,6.58,6.58,0,0,0-1-2.24,4.2,4.2,0,0,0-1.58-1.36A4.69,4.69,0,0,0,870,377a4.62,4.62,0,0,0-2.09.47,4.36,4.36,0,0,0-1.58,1.36,7,7,0,0,0-1,2.24,12.37,12.37,0,0,0-.35,3.08v1.09a12.51,12.51,0,0,0,.35,3.09,6.86,6.86,0,0,0,1,2.25,4.42,4.42,0,0,0,1.59,1.37,4.69,4.69,0,0,0,2.1.47,4.24,4.24,0,0,0,3.69-1.83,9.19,9.19,0,0,0,1.3-5.35Z"/><path class="cls-10" d="M889.85,387.07h-4v8H882.2V374.28h7.32a11.17,11.17,0,0,1,3.19.41,6.49,6.49,0,0,1,2.36,1.2,5,5,0,0,1,1.47,2,7,7,0,0,1,.5,2.72,5.83,5.83,0,0,1-1,3.49,6.44,6.44,0,0,1-2.81,2.17l4.68,8.68v.18H894Zm-4-2.9h3.71a4.86,4.86,0,0,0,1.7-.26,3.39,3.39,0,0,0,1.22-.71,3,3,0,0,0,.73-1.09,3.85,3.85,0,0,0,.24-1.38,4.22,4.22,0,0,0-.23-1.46,2.8,2.8,0,0,0-.7-1.11,3.07,3.07,0,0,0-1.21-.72,5.65,5.65,0,0,0-1.76-.25h-3.7Z"/><path class="cls-10" d="M900.47,395.09V374.28h6.15a10,10,0,0,1,3.81.7,8.54,8.54,0,0,1,3,2,9.26,9.26,0,0,1,1.92,3.13,11.51,11.51,0,0,1,.69,4.09v1a11.72,11.72,0,0,1-.68,4.08,9,9,0,0,1-1.93,3.11,8.57,8.57,0,0,1-3,2,10.48,10.48,0,0,1-3.92.7Zm3.62-17.9v15h2.36a6.45,6.45,0,0,0,2.58-.48,4.85,4.85,0,0,0,1.86-1.38,6,6,0,0,0,1.1-2.2,10.61,10.61,0,0,0,.38-2.93v-1.06a8,8,0,0,0-1.48-5.18,5.21,5.21,0,0,0-4.27-1.79Z"/><rect class="cls-19" x="756.14" y="343.34" width="57.68" height="18.29"/><path class="cls-19" d="M794,396.22l-9,5.23-9-5.23a40,40,0,0,1-19.87-34.59h57.68A40,40,0,0,1,794,396.22Z"/><line class="cls-18" x1="763.98" y1="352.49" x2="805.98" y2="352.49"/><path class="cls-10" d="M778.6,387.9h-3.28V372.05l-4.85,1.65v-2.78l7.71-2.83h.42Z"/><path class="cls-10" d="M786.34,378.11l1.07-9.95H798V371h-7.86l-.55,4.72a7.73,7.73,0,0,1,1.27-.53,6,6,0,0,1,1.83-.25,6.4,6.4,0,0,1,2.5.46,5,5,0,0,1,1.88,1.32,6.1,6.1,0,0,1,1.16,2.1,8.81,8.81,0,0,1,.41,2.77,8.24,8.24,0,0,1-.4,2.57,5.8,5.8,0,0,1-1.21,2.09,5.62,5.62,0,0,1-2,1.4,7.16,7.16,0,0,1-2.86.52,7.65,7.65,0,0,1-2.35-.36,6,6,0,0,1-2-1.07,5.61,5.61,0,0,1-1.44-1.75,5.81,5.81,0,0,1-.63-2.42h3.18a3.48,3.48,0,0,0,1,2.2,3.15,3.15,0,0,0,2.2.77,3.1,3.1,0,0,0,1.4-.3,2.82,2.82,0,0,0,1-.83,4.09,4.09,0,0,0,.6-1.28,6,6,0,0,0,.2-1.63,5.21,5.21,0,0,0-.22-1.56,3.45,3.45,0,0,0-.67-1.24,3,3,0,0,0-1.09-.82,3.83,3.83,0,0,0-1.53-.29,4.78,4.78,0,0,0-1,.09,3.08,3.08,0,0,0-.76.25,3.92,3.92,0,0,0-.59.37c-.18.14-.36.3-.53.46Z"/><path class="cls-3" d="M2597.73,442.06h28.12a0,0,0,0,1,0,0V489.6a14.06,14.06,0,0,1-14.06,14.06h0a14.06,14.06,0,0,1-14.06-14.06V442.06A0,0,0,0,1,2597.73,442.06Z"/><path class="cls-3" d="M2625.85,442.06H2654a0,0,0,0,1,0,0V489.6a14.06,14.06,0,0,1-14.06,14.06h0a14.06,14.06,0,0,1-14.06-14.06V442.06A0,0,0,0,1,2625.85,442.06Z"/><path class="cls-3" d="M2654,442.06h28.12a0,0,0,0,1,0,0V489.6A14.06,14.06,0,0,1,2668,503.66h0A14.06,14.06,0,0,1,2654,489.6V442.06a0,0,0,0,1,0,0Z"/><path class="cls-3" d="M2682.09,442.06h28.12a0,0,0,0,1,0,0V489.6a14.06,14.06,0,0,1-14.06,14.06h0a14.06,14.06,0,0,1-14.06-14.06V442.06A0,0,0,0,1,2682.09,442.06Z"/><path class="cls-3" d="M2710.22,442.06h28.12a0,0,0,0,1,0,0V489.6a14.06,14.06,0,0,1-14.06,14.06h0a14.06,14.06,0,0,1-14.06-14.06V442.06A0,0,0,0,1,2710.22,442.06Z"/><rect class="cls-13" x="235.48" y="401.73" width="88.61" height="162.88"/><rect class="cls-13" x="381.49" y="524.98" width="62.79" height="69.33" transform="translate(-146.75 972.53) rotate(-90)"/><line class="cls-6" x1="394.47" y1="559.64" x2="431.31" y2="559.64"/><rect class="cls-13" x="297.61" y="427.74" width="62.79" height="105.09" transform="translate(-151.28 809.29) rotate(-90)"/><line class="cls-6" x1="317.63" y1="494.73" x2="317.63" y2="469.92"/><line class="cls-6" x1="346.31" y1="494.73" x2="346.31" y2="469.92"/><rect class="cls-13" x="172.68" y="426.14" width="62.79" height="105.09" transform="translate(408.16 957.36) rotate(180)"/><line class="cls-6" x1="218.52" y1="490.06" x2="193.71" y2="490.06"/><line class="cls-6" x1="218.52" y1="461.37" x2="193.71" y2="461.37"/><rect class="cls-13" x="279.78" y="546.13" width="98.45" height="32.24"/><rect class="cls-13" x="191.17" y="531.45" width="88.61" height="46.8"/><line class="cls-6" x1="209.59" y1="558.64" x2="246.42" y2="558.64"/><rect class="cls-13" x="301.93" y="401.73" width="54.15" height="46.8"/><line class="cls-6" x1="328.44" y1="414.88" x2="328.44" y2="437.39"/><rect class="cls-13" x="208.4" y="353.49" width="54.15" height="46.8"/><line class="cls-6" x1="234.91" y1="366.64" x2="234.91" y2="389.15"/><rect class="cls-13" x="122.21" y="445.75" width="54.15" height="46.8" transform="translate(-319.88 618.43) rotate(-90)"/><line class="cls-6" x1="139.03" y1="469.72" x2="161.53" y2="469.72"/><circle class="cls-10" cx="1913.91" cy="367.1" r="29.19"/><line class="cls-12" x1="1913.91" y1="337.91" x2="1913.91" y2="382.59"/><polyline class="cls-12" points="1894.51 363.19 1913.91 382.58 1933.31 363.19"/><rect class="cls-4" x="2727.21" y="377.49" width="54.3" height="12.19"/><rect class="cls-4" x="2752.94" y="365.3" width="54.3" height="12.19"/><rect class="cls-4" x="3012.68" y="435.93" width="54.3" height="12.19"/><rect class="cls-4" x="3038.41" y="423.75" width="54.3" height="12.19"/><ellipse class="cls-10" cx="3140.29" cy="341.62" rx="15.51" ry="9.06"/><polyline class="cls-7" points="3151.64 341.62 3151.64 276.26 3198.55 254.36 3198.55 319.72"/><ellipse class="cls-10" cx="3187.19" cy="319.72" rx="15.51" ry="9.06"/><rect class="cls-3" x="1472.49" y="436.02" width="40.92" height="33.96"/><rect class="cls-3" x="1472.49" y="469.98" width="40.92" height="33.96"/><rect class="cls-3" x="1472.49" y="503.94" width="40.92" height="33.96"/><rect class="cls-3" x="1513.4" y="436.02" width="40.92" height="33.96"/><rect class="cls-3" x="1513.4" y="469.98" width="40.92" height="33.96"/><rect class="cls-3" x="1513.4" y="503.94" width="40.92" height="33.96"/><rect class="cls-3" x="1554.32" y="436.02" width="40.92" height="33.96"/><rect class="cls-3" x="1554.32" y="469.98" width="40.92" height="33.96"/><rect class="cls-3" x="1554.32" y="503.94" width="40.92" height="33.96"/><rect class="cls-3" x="1595.23" y="436.02" width="40.92" height="33.96"/><rect class="cls-3" x="1595.23" y="469.98" width="40.92" height="33.96"/><rect class="cls-3" x="1595.23" y="503.94" width="40.92" height="33.96"/><rect class="cls-3" x="1636.15" y="436.02" width="40.92" height="33.96"/><rect class="cls-3" x="1636.15" y="469.98" width="40.92" height="33.96"/><rect class="cls-3" x="1636.15" y="503.94" width="40.92" height="33.96"/><rect class="cls-3" x="1677.06" y="436.02" width="40.92" height="33.96"/><rect class="cls-3" x="1677.06" y="469.98" width="40.92" height="33.96"/><rect class="cls-3" x="1677.06" y="503.94" width="40.92" height="33.96"/><polyline class="cls-6" points="1468.08 532.84 1468.08 436.02 1717.97 436.02 1717.97 554.89 1874.72 554.89"/><path class="cls-4" d="M1468.08,552.34a13.46,13.46,0,1,0-13.47-13.46,13.46,13.46,0,0,0,13.47,13.46"/><path class="cls-4" d="M1884.72,568a13.47,13.47,0,1,0-13.46-13.46A13.47,13.47,0,0,0,1884.72,568"/><line class="cls-3" x1="2409.94" y1="143.91" x2="2457.49" y2="96.36"/><circle class="cls-3" cx="2457.49" cy="96.36" r="15.27"/><line class="cls-3" x1="2409.94" y1="143.91" x2="2457.49" y2="191.45"/><circle class="cls-3" cx="2409.94" cy="143.91" r="15.27"/><line class="cls-3" x1="2409.94" y1="239" x2="2457.49" y2="191.45"/><circle class="cls-3" cx="2409.94" cy="239" r="15.27"/><circle class="cls-3" cx="2457.49" cy="191.45" r="15.27"/><line class="cls-7" x1="363.48" y1="155.38" x2="536" y2="155.38"/><circle class="cls-4" cx="547.82" cy="155.38" r="13.46"/><path class="cls-4" d="M286,163.61H313.7l13.53,23.68a2.05,2.05,0,0,0,1.78,1h8.44a2.07,2.07,0,0,0,2-2.63l-6.32-22.09h20.25l5.56,7.42a2.06,2.06,0,0,0,1.65.82h5.15a2.05,2.05,0,0,0,2-2.56l-4-13.91,4-13.92a2.05,2.05,0,0,0-2-2.56h-5.15a2.06,2.06,0,0,0-1.65.82l-5.56,7.42H333.11l6.32-22.09a2.07,2.07,0,0,0-2-2.63H329a2.05,2.05,0,0,0-1.78,1L313.7,147.14H286c-4.56,0-12.36,3.69-12.36,8.24S281.42,163.61,286,163.61Z"/><path class="cls-10" d="M525.35,113v9.43h-6.41v-9.36l-8.47-15.25h7.09l4.59,8.58,4.58-8.58h7Z"/><path class="cls-10" d="M558,112c0,6.6-4.66,10.89-10.89,10.89s-10.89-4.29-10.89-10.89V97.81h6.42v14.66a4.48,4.48,0,1,0,8.95,0V97.81H558Z"/><path class="cls-10" d="M569.14,116.64h10.18v5.78H562.73V97.81h6.41Z"/><polyline class="cls-5" points="2800.99 641.48 2743.03 641.48 2743.03 609.57 2711.12 609.57 2711.12 577.65 2679.21 577.65 2679.21 545.74 2605.98 545.74 2605.98 627.98"/><polyline class="cls-5" points="2800.99 641.48 2743.03 641.48 2743.03 609.57 2711.12 609.57 2711.12 577.65 2679.21 577.65 2679.21 545.74 2605.98 545.74 2605.98 627.98"/><polyline class="cls-14" points="2800.99 641.48 2743.03 641.48 2743.03 609.57 2711.12 609.57 2711.12 577.65 2679.21 577.65 2679.21 545.74 2605.98 545.74 2605.98 627.98"/><circle class="cls-4" cx="2814.45" cy="641.48" r="11.29"/><circle class="cls-4" cx="2605.98" cy="641.48" r="11.29"/><path class="cls-5" d="M1352.09,506.33l-21.93,73.51h56l-21.92-73.51A6.37,6.37,0,0,0,1352.09,506.33Z"/><line class="cls-7" x1="1344.93" y1="530.33" x2="1371.45" y2="530.33"/><line class="cls-7" x1="1339.75" y1="547.69" x2="1376.63" y2="547.69"/><path class="cls-7" d="M1352.09,506.33l-21.93,73.51h56l-21.92-73.51A6.37,6.37,0,0,0,1352.09,506.33Z"/><line class="cls-20" x1="1320.47" y1="579.84" x2="1395.91" y2="579.84"/><polyline class="cls-7" points="1234.15 92.12 1234.15 140.4 1189.87 96.12 1145.59 140.4 1101.31 96.12 1057.03 140.4 1012.75 96.12 1012.75 144.41"/><rect class="cls-5" x="2323.06" y="517.64" width="213.06" height="68.53"/><line class="cls-12" x1="2536.12" y1="551.7" x2="2323.06" y2="551.7"/><rect class="cls-6" x="2323.06" y="517.64" width="211.87" height="68.53"/><rect class="cls-5" x="1444.02" y="605.49" width="479.56" height="56.37"/></g></g></svg>