<svg xmlns="http://www.w3.org/2000/svg" xmlns:xlink="http://www.w3.org/1999/xlink" viewBox="0 0 3718.44 1117.65"><defs><style>.cls-1,.cls-13,.cls-14,.cls-16,.cls-18,.cls-20,.cls-7,.cls-8{fill:none;}.cls-1,.cls-13{stroke:#232323;}.cls-1{stroke-miterlimit:10;}.cls-10,.cls-15,.cls-19,.cls-2,.cls-3,.cls-4,.cls-5,.cls-6{fill:#232323;}.cls-10,.cls-14,.cls-15,.cls-16,.cls-18,.cls-19,.cls-20,.cls-3,.cls-4,.cls-5,.cls-6,.cls-7,.cls-8{stroke:#fff;}.cls-10,.cls-13,.cls-14,.cls-15,.cls-16,.cls-18,.cls-19,.cls-20,.cls-3,.cls-4,.cls-5,.cls-6,.cls-7,.cls-8{stroke-linejoin:round;}.cls-14,.cls-3{stroke-width:10px;}.cls-13,.cls-16,.cls-4{stroke-width:6px;}.cls-5,.cls-7{stroke-width:14px;}.cls-20,.cls-6,.cls-8{stroke-width:8px;}.cls-17,.cls-9{opacity:0.6;}.cls-10{stroke-width:12px;}.cls-11{fill:#fff;}.cls-12{clip-path:url(#clip-path);}.cls-18{stroke-width:4px;}.cls-19{stroke-width:3px;}.cls-20{stroke-linecap:round;}</style><clipPath id="clip-path"><circle class="cls-1" cx="577.15" cy="554.21" r="100.35"/></clipPath></defs><g id="Layer_2" data-name="Layer 2"><g id="artwork"><rect class="cls-2" width="3718.44" height="1117.65"/><rect class="cls-3" x="2875.5" y="440.53" width="57.4" height="254.51"/><rect class="cls-3" x="2867.7" y="473.83" width="73" height="221.21"/><rect class="cls-3" x="2859" y="563.59" width="90.39" height="131.46"/><rect class="cls-3" x="2850.09" y="636.56" width="108.21" height="58.49"/><line class="cls-4" x1="2904.2" y1="440.53" x2="2904.2" y2="695.04"/><line class="cls-4" x1="2919.37" y1="440.53" x2="2919.37" y2="695.04"/><line class="cls-4" x1="2889.02" y1="440.53" x2="2889.02" y2="695.04"/><circle class="cls-5" cx="3387.02" cy="751.32" r="166.52"/><circle class="cls-6" cx="3387.02" cy="751.32" r="119.37"/><rect class="cls-4" x="3379.05" y="574.53" width="15.94" height="138.98"/><rect class="cls-4" x="3303.17" y="605.96" width="15.94" height="138.98" transform="translate(492.2 2539.17) rotate(-45)"/><rect class="cls-4" x="3271.75" y="681.83" width="15.94" height="138.98" transform="translate(2528.4 4031.04) rotate(-90)"/><rect class="cls-4" x="3303.17" y="757.7" width="15.94" height="138.98" transform="translate(5067.56 3753.44) rotate(-135)"/><rect class="cls-4" x="3379.05" y="789.13" width="15.94" height="138.98" transform="translate(6774.03 1717.24) rotate(-180)"/><rect class="cls-4" x="3454.92" y="757.7" width="15.94" height="138.98" transform="translate(6496.44 -1036.53) rotate(135)"/><rect class="cls-4" x="3486.35" y="681.83" width="15.94" height="138.98" transform="translate(4245.64 -2743) rotate(90)"/><rect class="cls-4" x="3454.92" y="605.96" width="15.94" height="138.98" transform="translate(1491.87 -2250.8) rotate(45)"/><circle class="cls-6" cx="3387.02" cy="751.32" r="71.47"/><path class="cls-2" d="M3342,848.31h-46.28V748.94H3108.31V687.13c70,0,201.86-97.68,233.7-235.11h158S3265.25,576.16,3342,848.31Z"/><path class="cls-2" d="M3419.62,452l-204.3,296.92h-107V687.13c70,0,201.86-97.68,233.7-235.11Z"/><path class="cls-7" d="M3108.31,748.94V687.13c70,0,201.86-97.68,233.7-235.12h158S3265.25,576.16,3342,848.3h-46.28V748.94Z"/><line class="cls-8" x1="3418.76" y1="452.01" x2="3215.32" y2="748.94"/><polygon class="cls-6" points="3166.65 748.94 3308.14 613.46 3275.7 748.94 3166.65 748.94"/><line class="cls-6" x1="3269.82" y1="650.16" x2="3299.36" y2="650.16"/><line class="cls-8" x1="3241.98" y1="675.45" x2="3293.3" y2="675.45"/><line class="cls-8" x1="3216.99" y1="700.73" x2="3287.25" y2="700.73"/><line class="cls-8" x1="3191.82" y1="724.84" x2="3279.72" y2="724.84"/><rect class="cls-2" x="2176.09" y="537.47" width="110.94" height="133.76"/><rect class="cls-7" x="2176.09" y="537.47" width="110.94" height="133.76"/><rect class="cls-2" x="2176.09" y="382.13" width="110.94" height="133.76"/><rect class="cls-7" x="2176.09" y="382.13" width="110.94" height="133.76"/><rect class="cls-2" x="2287.03" y="357.23" width="22.92" height="313.99"/><rect class="cls-7" x="2287.03" y="357.23" width="22.92" height="313.99"/><g class="cls-9"><polygon points="2183.09 382.13 2234.74 671.22 2169.09 671.22 2169.09 382.13 2183.09 382.13"/></g><rect class="cls-2" x="2153.17" y="357.23" width="22.92" height="313.99"/><rect class="cls-7" x="2153.17" y="357.23" width="22.92" height="313.99"/><rect class="cls-10" x="2590.83" y="409.66" width="135.2" height="227.03"/><rect class="cls-10" x="2658.43" y="409.66" width="67.6" height="227.03"/><rect class="cls-10" x="2618.02" y="371.46" width="80.81" height="265.23"/><rect class="cls-10" x="2658.43" y="371.46" width="40.41" height="265.23"/><rect class="cls-10" x="2642.34" y="340.59" width="32.19" height="304.37"/><path class="cls-6" d="M2676.36,324.49a17.93,17.93,0,0,0-35.86,0Z"/><circle class="cls-11" cx="577.15" cy="554.21" r="120.98"/><g class="cls-12"><rect class="cls-13" x="435.26" y="536.63" width="35.16" height="35.16" transform="translate(-259.25 482.53) rotate(-45)"/><rect class="cls-13" x="460.13" y="561.49" width="35.16" height="35.16" transform="translate(-269.55 507.39) rotate(-45)"/><rect class="cls-13" x="484.99" y="586.35" width="35.16" height="35.16" transform="translate(-279.85 532.26) rotate(-45)"/><rect class="cls-13" x="509.85" y="611.21" width="35.16" height="35.16" transform="translate(-290.14 557.12) rotate(-45)"/><rect class="cls-13" x="534.71" y="636.08" width="35.16" height="35.16" transform="translate(-300.44 581.98) rotate(-45)"/><rect class="cls-13" x="559.57" y="660.94" width="35.16" height="35.16" transform="translate(-310.74 606.84) rotate(-45)"/><rect class="cls-13" x="460.13" y="511.77" width="35.16" height="35.16" transform="translate(-234.39 492.83) rotate(-45)"/><rect class="cls-13" x="484.99" y="536.63" width="35.16" height="35.16" transform="translate(-244.69 517.69) rotate(-45)"/><rect class="cls-13" x="509.85" y="561.49" width="35.16" height="35.16" transform="translate(-254.98 542.55) rotate(-45)"/><rect class="cls-13" x="534.71" y="586.35" width="35.16" height="35.16" transform="translate(-265.28 567.42) rotate(-45)"/><rect class="cls-13" x="559.57" y="611.21" width="35.16" height="35.16" transform="translate(-275.58 592.28) rotate(-45)"/><rect class="cls-13" x="584.43" y="636.08" width="35.16" height="35.16" transform="translate(-285.88 617.14) rotate(-45)"/><rect class="cls-13" x="484.99" y="486.91" width="35.16" height="35.16" transform="translate(-209.53 503.13) rotate(-45)"/><rect class="cls-13" x="509.85" y="511.77" width="35.16" height="35.16" transform="translate(-219.82 527.99) rotate(-45)"/><rect class="cls-13" x="534.71" y="536.63" width="35.16" height="35.16" transform="translate(-230.12 552.85) rotate(-45)"/><rect class="cls-13" x="559.57" y="561.49" width="35.16" height="35.16" transform="translate(-240.42 577.71) rotate(-45)"/><rect class="cls-13" x="584.43" y="586.35" width="35.16" height="35.16" transform="translate(-250.72 602.58) rotate(-45)"/><rect class="cls-13" x="609.3" y="611.21" width="35.16" height="35.16" transform="translate(-261.02 627.44) rotate(-45)"/><rect class="cls-13" x="509.85" y="462.04" width="35.16" height="35.16" transform="translate(-184.67 513.43) rotate(-45)"/><rect class="cls-13" x="534.71" y="486.91" width="35.16" height="35.16" transform="translate(-194.96 538.29) rotate(-45)"/><rect class="cls-13" x="559.57" y="511.77" width="35.16" height="35.16" transform="translate(-205.26 563.15) rotate(-45)"/><rect class="cls-13" x="584.43" y="536.63" width="35.16" height="35.16" transform="translate(-215.56 588.01) rotate(-45)"/><rect class="cls-13" x="609.3" y="561.49" width="35.16" height="35.16" transform="translate(-225.86 612.87) rotate(-45)"/><rect class="cls-13" x="634.16" y="586.35" width="35.16" height="35.16" transform="translate(-236.16 637.74) rotate(-45)"/><rect class="cls-13" x="534.71" y="437.18" width="35.16" height="35.16" transform="translate(-159.8 523.72) rotate(-45)"/><rect class="cls-13" x="559.57" y="462.04" width="35.16" height="35.16" transform="translate(-170.1 548.59) rotate(-45)"/><rect class="cls-13" x="584.43" y="486.91" width="35.16" height="35.16" transform="translate(-180.4 573.45) rotate(-45)"/><rect class="cls-13" x="609.3" y="511.77" width="35.16" height="35.16" transform="translate(-190.7 598.31) rotate(-45)"/><rect class="cls-13" x="634.16" y="536.63" width="35.16" height="35.16" transform="translate(-201 623.17) rotate(-45)"/><rect class="cls-13" x="659.02" y="561.49" width="35.16" height="35.16" transform="translate(-211.29 648.03) rotate(-45)"/><rect class="cls-13" x="559.57" y="412.32" width="35.16" height="35.16" transform="translate(-134.94 534.02) rotate(-45)"/><rect class="cls-13" x="584.43" y="437.18" width="35.16" height="35.16" transform="translate(-145.24 558.88) rotate(-45)"/><rect class="cls-13" x="609.3" y="462.04" width="35.16" height="35.16" transform="translate(-155.54 583.75) rotate(-45)"/><rect class="cls-13" x="634.16" y="486.91" width="35.16" height="35.16" transform="translate(-165.84 608.61) rotate(-45)"/><rect class="cls-13" x="659.02" y="511.77" width="35.16" height="35.16" transform="translate(-176.13 633.47) rotate(-45)"/><rect class="cls-13" x="683.88" y="536.63" width="35.16" height="35.16" transform="translate(-186.43 658.33) rotate(-45)"/></g><circle class="cls-1" cx="577.15" cy="554.21" r="100.35"/><circle class="cls-13" cx="577.15" cy="554.21" r="100.35"/><rect class="cls-2" x="2760.7" y="481.04" width="62.21" height="403.34"/><rect class="cls-2" x="2656.78" y="549.29" width="112.36" height="335.1"/><rect class="cls-2" x="2562.48" y="611.42" width="135.92" height="272.96"/><rect class="cls-5" x="1706.31" y="362.77" width="137.2" height="334.87"/><rect class="cls-3" x="1820.67" y="481.48" width="22.84" height="216.16"/><rect class="cls-14" x="1705.06" y="481.48" width="22.84" height="216.16"/><rect class="cls-15" x="1798.19" y="362.77" width="44.96" height="118.71"/><rect class="cls-7" x="1706.31" y="362.77" width="137.2" height="334.87"/><polygon class="cls-3" points="1833.34 362.77 1716.48 362.77 1737.66 307.81 1749.33 328.57 1800.48 328.57 1812.15 307.81 1833.34 362.77"/><polygon class="cls-3" points="1798.19 362.77 1843.14 407.73 1843.14 362.77 1798.19 362.77"/><polygon class="cls-3" points="1751.63 362.77 1706.67 407.73 1706.67 362.77 1751.63 362.77"/><polyline class="cls-14" points="1798.19 362.77 1798.19 481.48 1843.14 481.48"/><polyline class="cls-14" points="1751.63 362.77 1751.63 481.48 1706.67 481.48"/><circle class="cls-5" cx="1670.6" cy="644.14" r="118.58"/><rect class="cls-2" x="1446.73" y="354.25" width="163.98" height="274.95"/><rect class="cls-2" x="26.36" y="849.64" width="3692.08" height="160.97"/><rect class="cls-2" x="1452.57" y="629.2" width="249.67" height="232.57"/><rect class="cls-2" x="1270.66" y="726.65" width="797.84" height="135.12"/><rect class="cls-2" x="1347.72" y="565.63" width="99.01" height="296.14"/><polygon class="cls-5" points="2087.62 384.12 2087.62 726.65 1940.27 726.65 1940.27 384.12 1993.57 384.12 1993.57 424.87 2034.33 424.87 2034.33 384.12 2087.62 384.12"/><polygon class="cls-5" points="2002.79 285.39 1988.05 285.39 1940.27 358.14 2002.79 358.14 2002.79 285.39"/><polygon class="cls-5" points="2025.11 285.39 2039.86 285.39 2087.63 358.14 2025.11 358.14 2025.11 285.39"/><line class="cls-7" x1="2013.95" y1="452.02" x2="2013.95" y2="527.61"/><line class="cls-7" x1="1988.36" y1="452.02" x2="1988.36" y2="527.61"/><line class="cls-7" x1="2039.53" y1="452.02" x2="2039.53" y2="527.61"/><polygon class="cls-2" points="2001.94 581.26 1940.86 517.97 1878.61 581.26 1878.61 737.38 2001.94 737.38 2001.94 581.26"/><rect class="cls-2" x="2001.94" y="671.22" width="345.42" height="315.81"/><rect class="cls-2" x="1969.46" y="671.22" width="96.55" height="96.55"/><rect class="cls-2" x="2001.94" y="816.04" width="588.89" height="170.99"/><line class="cls-16" x1="1446.73" y1="377.51" x2="1610.71" y2="377.51"/><line class="cls-16" x1="1446.73" y1="400.1" x2="1610.71" y2="400.1"/><line class="cls-16" x1="1446.73" y1="422.69" x2="1610.71" y2="422.69"/><line class="cls-16" x1="1446.73" y1="445.28" x2="1610.71" y2="445.28"/><line class="cls-16" x1="1446.73" y1="467.86" x2="1610.71" y2="467.86"/><line class="cls-16" x1="1446.73" y1="490.45" x2="1610.71" y2="490.45"/><line class="cls-16" x1="1446.73" y1="513.04" x2="1610.71" y2="513.04"/><line class="cls-16" x1="1446.73" y1="535.63" x2="1610.71" y2="535.63"/><rect class="cls-2" x="443.65" y="645.33" width="322.67" height="137.6"/><path class="cls-16" d="M443.65,672.82c32.27,0,32.27,20,64.53,20s32.27-20,64.53-20,32.27,20,64.54,20,32.27-20,64.53-20,32.27,20,64.54,20"/><path class="cls-16" d="M443.65,702.78c32.27,0,32.27,20,64.53,20s32.27-20,64.53-20,32.27,20,64.54,20,32.27-20,64.53-20,32.27,20,64.54,20"/><path class="cls-16" d="M443.65,732.73c32.27,0,32.27,20,64.53,20s32.27-20,64.53-20,32.27,20,64.54,20,32.27-20,64.53-20,32.27,20,64.54,20"/><rect class="cls-8" x="821.15" y="397.56" width="26.88" height="26.88"/><rect class="cls-8" x="821.15" y="370.67" width="26.88" height="26.88"/><rect class="cls-8" x="821.15" y="343.79" width="26.88" height="26.88"/><rect class="cls-8" x="848.04" y="343.79" width="26.88" height="26.88"/><rect class="cls-8" x="794.27" y="343.79" width="26.88" height="26.88"/><rect class="cls-8" x="821.15" y="316.91" width="26.88" height="26.88"/><path class="cls-5" d="M834.59,429.6c-119.14,0-215.73,96.59-215.73,215.73h431.47C1050.33,526.19,953.74,429.6,834.59,429.6Z"/><rect class="cls-2" x="3108.31" y="748.94" width="187.43" height="121.98"/><rect class="cls-2" x="2981.48" y="617.58" width="126.83" height="253.33"/><rect class="cls-2" x="2798.39" y="693.52" width="309.92" height="177.4"/><rect class="cls-2" x="766.32" y="559.43" width="504.34" height="319.9"/><g class="cls-9"><polygon points="2833.91 693.52 2866.88 809.41 2819.91 809.41 2819.91 693.52 2833.91 693.52"/></g><rect class="cls-2" x="26.36" y="782.45" width="739.96" height="96.89" transform="translate(792.68 1661.78) rotate(180)"/><rect class="cls-2" x="1032.74" y="397.56" width="237.92" height="161.88"/><polyline class="cls-7" points="121.3 783.63 443.65 783.63 443.65 645.33 766.32 645.33"/><circle class="cls-4" cx="766.32" cy="858.62" r="13.46"/><circle class="cls-4" cx="107.84" cy="782.93" r="13.46"/><circle class="cls-4" cx="969.65" cy="789.52" r="13.46"/><path class="cls-4" d="M1231.36,848.84a13.47,13.47,0,1,0-13.46-13.47,13.46,13.46,0,0,0,13.46,13.47"/><polyline class="cls-7" points="766.32 845.16 766.32 559.43 1032.74 559.43 1032.74 397.56 1270.66 397.56 1270.66 716.64"/><polyline class="cls-7" points="1610.71 629.2 1610.71 354.25 1446.73 354.25 1446.73 565.63 1347.72 565.63 1347.72 719.05 969.65 719.05 969.65 776.06"/><g class="cls-9"><polygon points="1559.99 354.25 1592.96 629.2 1545.99 629.2 1545.99 354.25 1559.99 354.25"/></g><polyline class="cls-7" points="2347.35 744.17 2561.37 744.17 2561.37 611.87 2675.53 611.87 2675.53 547.03 2753.69 547.03 2753.69 481.04 2826.91 481.04 2826.91 809.93 2973.14 809.93"/><polyline class="cls-7" points="1244.83 834.84 1452.57 834.84 1452.57 629.2 1701.34 629.2 1701.34 726.65 1875.36 726.65 1875.36 581.26 1938.65 517.97 2001.94 581.26 2001.94 671.22 2347.35 671.22 2347.35 858.62"/><polyline class="cls-7" points="2826.91 693.52 2981.48 693.52 2981.48 617.58 3108.31 617.58 3108.31 748.94 3295.73 748.94 3295.73 848.3 3631.46 848.3"/><circle class="cls-4" cx="3644.93" cy="848.3" r="13.46"/><circle class="cls-4" cx="2347.35" cy="870.69" r="13.46"/><rect class="cls-8" x="1039.11" y="326" width="44.28" height="44.28"/><rect class="cls-8" x="1083.39" y="326" width="44.28" height="44.28"/><rect class="cls-8" x="1127.67" y="326" width="44.28" height="44.28"/><rect class="cls-8" x="1171.95" y="326" width="44.28" height="44.28"/><rect class="cls-8" x="1216.23" y="326" width="44.28" height="44.28"/><path class="cls-11" d="M1105.83,255.3h-10.29V260h8.35v5.78h-8.35v8.35h-6.41V249.52h16.7Z"/><path class="cls-11" d="M1121.16,272.08h-8.84l-.89,2.05h-6.9l11.19-25.06h2L1129,274.13h-6.9Zm-4.4-10.85-2.16,5.7h4.29Z"/><path class="cls-11" d="M1146.11,274.13l-5.55-7.64h-2.65v7.64h-6.41V249.52h9.65c5.41,0,9.51,3.24,9.51,8.46a8,8,0,0,1-3.87,7l6.48,9.14Zm-8.2-13.24h3.28a2.89,2.89,0,1,0,0-5.78h-3.28Z"/><path class="cls-11" d="M1162.23,274.13h-6.42V249.52h6.42Z"/><path class="cls-11" d="M1189,249.52v25.06h-2l-13.35-12.94v12.49h-6.42V249.07h2l13.35,12.75v-12.3Z"/><path class="cls-11" d="M1211,255.3h-10.66v3.39h7.61v5.37h-7.61v4.29h11.11v5.78h-17.53V249.52H1211Z"/><path class="cls-11" d="M1066.93,290.2h-10.29v4.7H1065v5.78h-8.35V309h-6.42V284.42h16.71Z"/><path class="cls-11" d="M1076.85,309h-6.41V284.42h6.41Z"/><path class="cls-11" d="M1103.82,284.42l-11.19,25.06h-2.05l-11.19-25.06h7.27l5,12.08,4.93-12.08Z"/><path class="cls-11" d="M1123.44,290.2h-10.67v3.39h7.61V299h-7.61v4.29h11.11V309h-17.52V284.42h17.08Z"/><path class="cls-11" d="M1152.94,309l-5.56-7.64h-2.64V309h-6.42V284.42H1148c5.41,0,9.51,3.24,9.51,8.47a8,8,0,0,1-3.88,7l6.49,9.13Zm-8.2-13.24H1148a2.89,2.89,0,1,0,0-5.78h-3.28Z"/><path class="cls-11" d="M1187.36,296.73c0,7.27-6,12.75-13.31,12.75s-13.24-5.48-13.24-12.75S1166.7,284,1174.05,284,1187.36,289.49,1187.36,296.73Zm-20,0c0,4.17,2.76,6.86,6.72,6.86a6.87,6.87,0,1,0-6.72-6.86Z"/><path class="cls-11" d="M1207.54,288.93l-4.29,3.28c-1.12-1.64-2.2-2.61-4.06-2.61-1.27,0-2.2.45-2.2,1.57,0,.93.59,1.38,2.12,2l2.84,1.2c4.1,1.71,6.3,3.8,6.3,7.42,0,4.85-4,7.68-9,7.68a10.71,10.71,0,0,1-9.81-5.52l4.32-3.28c1.2,1.6,2.73,3.17,5.49,3.17,1.71,0,2.53-.6,2.53-1.79s-.78-1.53-2.5-2.28l-2.53-1.11c-3.92-1.72-6.23-4-6.23-7.43,0-4.4,3.62-7.27,8.61-7.27A8.87,8.87,0,0,1,1207.54,288.93Z"/><path class="cls-11" d="M1229,290.2h-10.67v3.39h7.61V299h-7.61v4.29h11.11V309h-17.52V284.42H1229Z"/><path class="cls-11" d="M1250,288.93l-4.29,3.28c-1.12-1.64-2.2-2.61-4.06-2.61-1.27,0-2.21.45-2.21,1.57,0,.93.6,1.38,2.13,2l2.83,1.2c4.11,1.71,6.31,3.8,6.31,7.42,0,4.85-4,7.68-9,7.68a10.73,10.73,0,0,1-9.81-5.52l4.33-3.28c1.19,1.6,2.72,3.17,5.48,3.17,1.72,0,2.54-.6,2.54-1.79s-.78-1.53-2.5-2.28l-2.54-1.11c-3.91-1.72-6.22-4-6.22-7.43,0-4.4,3.61-7.27,8.61-7.27A8.87,8.87,0,0,1,1250,288.93Z"/><rect class="cls-5" x="1504.45" y="336.92" width="48.55" height="292.28"/><line class="cls-16" x1="1504.45" y1="367.54" x2="1552.99" y2="367.54"/><line class="cls-16" x1="1504.45" y1="390.4" x2="1552.99" y2="390.4"/><line class="cls-16" x1="1504.45" y1="413.27" x2="1552.99" y2="413.27"/><line class="cls-16" x1="1504.45" y1="436.14" x2="1552.99" y2="436.14"/><line class="cls-16" x1="1504.45" y1="459.01" x2="1552.99" y2="459.01"/><line class="cls-16" x1="1504.45" y1="481.87" x2="1552.99" y2="481.87"/><line class="cls-16" x1="1504.45" y1="504.74" x2="1552.99" y2="504.74"/><line class="cls-16" x1="1504.45" y1="527.61" x2="1552.99" y2="527.61"/><polygon class="cls-2" points="2536.17 527.89 2536.17 721.18 2372.2 721.18 2372.2 527.89 2412.62 527.89 2412.62 607.37 2495.76 607.37 2495.76 527.89 2536.17 527.89"/><g class="cls-9"><line class="cls-2" x1="2412.62" y1="607.37" x2="2412.62" y2="725.77"/><polygon points="2419.62 607.37 2435.48 725.77 2405.62 725.77 2405.62 607.37 2419.62 607.37"/></g><polygon class="cls-7" points="2536.17 527.89 2536.17 721.18 2372.2 721.18 2372.2 527.89 2412.62 527.89 2412.62 607.37 2495.76 607.37 2495.76 527.89 2536.17 527.89"/><path class="cls-16" d="M2454.29,671.55h0a9.09,9.09,0,0,1,9.09,9.09v41.29a0,0,0,0,1,0,0h-18.19a0,0,0,0,1,0,0V680.65A9.09,9.09,0,0,1,2454.29,671.55Z"/><path class="cls-16" d="M2487.43,671.55h0a9.09,9.09,0,0,1,9.09,9.09v41.29a0,0,0,0,1,0,0h-18.19a0,0,0,0,1,0,0V680.65A9.09,9.09,0,0,1,2487.43,671.55Z"/><path class="cls-16" d="M2412,671.55h18.19a0,0,0,0,1,0,0v41.29a9.09,9.09,0,0,1-9.09,9.09h0a9.09,9.09,0,0,1-9.09-9.09V671.55A0,0,0,0,1,2412,671.55Z" transform="translate(4842.29 1393.49) rotate(-180)"/><path class="cls-11" d="M2516.13,623.89h0a4.65,4.65,0,0,1,4.65,4.65v16.13a0,0,0,0,1,0,0h-9.31a0,0,0,0,1,0,0V628.54A4.65,4.65,0,0,1,2516.13,623.89Z"/><path class="cls-11" d="M2516.13,586.59h0a4.65,4.65,0,0,1,4.65,4.65v16.13a0,0,0,0,1,0,0h-9.31a0,0,0,0,1,0,0V591.24A4.65,4.65,0,0,1,2516.13,586.59Z"/><path class="cls-11" d="M2516.13,549.29h0a4.65,4.65,0,0,1,4.65,4.65v16.13a0,0,0,0,1,0,0h-9.31a0,0,0,0,1,0,0V553.94A4.65,4.65,0,0,1,2516.13,549.29Z"/><path class="cls-11" d="M2387.59,623.89h9.31a0,0,0,0,1,0,0V640a4.65,4.65,0,0,1-4.65,4.65h0a4.65,4.65,0,0,1-4.65-4.65V623.89a0,0,0,0,1,0,0Z" transform="translate(4784.49 1268.56) rotate(-180)"/><path class="cls-11" d="M2387.59,586.59h9.31a0,0,0,0,1,0,0v16.13a4.65,4.65,0,0,1-4.65,4.65h0a4.65,4.65,0,0,1-4.65-4.65V586.59A0,0,0,0,1,2387.59,586.59Z" transform="translate(4784.49 1193.95) rotate(180)"/><path class="cls-11" d="M2387.59,549.29h9.31a0,0,0,0,1,0,0v16.13a4.65,4.65,0,0,1-4.65,4.65h0a4.65,4.65,0,0,1-4.65-4.65V549.29a0,0,0,0,1,0,0Z" transform="translate(4784.49 1119.35) rotate(-180)"/><line class="cls-16" x1="2536.17" y1="658.79" x2="2372.2" y2="658.79"/><line class="cls-7" x1="2372.2" y1="527.89" x2="2372.2" y2="501.39"/><line class="cls-7" x1="2412.62" y1="527.89" x2="2412.62" y2="501.39"/><line class="cls-7" x1="2495.92" y1="527.89" x2="2495.92" y2="501.39"/><line class="cls-7" x1="2536.34" y1="527.89" x2="2536.34" y2="501.39"/><rect class="cls-14" x="3008.15" y="538.37" width="72.84" height="58.84"/><path class="cls-5" d="M3074,521.44a29.42,29.42,0,1,0-58.84,0Z"/><line class="cls-7" x1="2996.9" y1="521.44" x2="3092.24" y2="521.44"/><path class="cls-16" d="M3044.57,552.9h0a9.09,9.09,0,0,1,9.09,9.09v20.69a0,0,0,0,1,0,0h-18.19a0,0,0,0,1,0,0V562a9.09,9.09,0,0,1,9.09-9.09Z"/><path class="cls-16" d="M3077.61,552.9h0a9.09,9.09,0,0,0-9.1,9.09v20.69h9.1"/><path class="cls-16" d="M3011.53,552.9h0a9.09,9.09,0,0,1,9.09,9.09v20.69h-9.09"/><line class="cls-8" x1="3044.57" y1="492.02" x2="3044.57" y2="430.72"/><rect class="cls-6" x="3044.57" y="430.72" width="57.48" height="21.29"/><circle class="cls-4" cx="1528.72" cy="246.34" r="13.46"/><line class="cls-7" x1="1528.72" y1="336.92" x2="1528.72" y2="259.93"/><circle class="cls-3" cx="355.8" cy="539.09" r="43.36"/><line class="cls-7" x1="355.8" y1="629.2" x2="355.8" y2="582.46"/><line class="cls-16" x1="355.8" y1="582.46" x2="355.8" y2="495.73"/><line class="cls-16" x1="355.8" y1="532.18" x2="388.2" y2="515.3"/><line class="cls-16" x1="355.8" y1="560.98" x2="398.8" y2="538.57"/><line class="cls-16" x1="355.8" y1="532.18" x2="323.39" y2="515.3"/><line class="cls-16" x1="355.8" y1="560.98" x2="312.79" y2="538.57"/><circle class="cls-3" cx="2904.2" cy="716.98" r="43.36"/><line class="cls-7" x1="2904.2" y1="807.09" x2="2904.2" y2="760.34"/><line class="cls-16" x1="2904.2" y1="760.34" x2="2904.2" y2="673.61"/><line class="cls-16" x1="2904.2" y1="710.07" x2="2936.6" y2="693.18"/><line class="cls-16" x1="2904.2" y1="738.87" x2="2947.21" y2="716.46"/><line class="cls-16" x1="2904.2" y1="710.07" x2="2871.79" y2="693.18"/><line class="cls-16" x1="2904.2" y1="738.87" x2="2861.19" y2="716.46"/><ellipse class="cls-17" cx="2129.22" cy="840.69" rx="169.63" ry="5.32"/><path class="cls-2" d="M2276.69,803.12v21H2006.37a25.27,25.27,0,0,1-25.27-25.28V747.51h240A55.61,55.61,0,0,1,2276.69,803.12Z"/><path class="cls-2" d="M2276.69,803.12v21H2166.18l-37.29-76.63h92.19A55.61,55.61,0,0,1,2276.69,803.12Z"/><polygon class="cls-2" points="2276.69 824.14 1996.51 824.14 1981.75 804.56 2276.69 803.12 2276.69 824.14"/><path class="cls-7" d="M2276.69,803.12v21H2006.37a25.27,25.27,0,0,1-25.27-25.28V747.51h240A55.61,55.61,0,0,1,2276.69,803.12Z"/><circle class="cls-6" cx="2065.74" cy="824.15" r="13.46"/><circle class="cls-6" cx="2197.92" cy="824.15" r="13.46"/><line class="cls-7" x1="2270.02" y1="776.7" x2="2094.18" y2="776.7"/><line class="cls-8" x1="1206.86" y1="474.49" x2="1206.86" y2="421.38"/><line class="cls-8" x1="1183.12" y1="442.88" x2="1230.61" y2="442.88"/><rect class="cls-5" x="1238.9" y="546.81" width="40.28" height="75.77" transform="translate(2518.09 1169.39) rotate(180)"/><rect class="cls-5" x="1134.54" y="546.81" width="40.28" height="75.77"/><rect class="cls-5" x="1174.82" y="546.81" width="64.08" height="75.77"/><rect class="cls-5" x="1110.82" y="606.88" width="192.09" height="75.77"/><rect class="cls-5" x="1206.86" y="606.88" width="96.05" height="75.77"/><polygon class="cls-5" points="1254.29 606.76 1206.86 587.57 1159.44 606.76 1159.44 682.7 1254.29 682.7 1254.29 606.76"/><path class="cls-5" d="M1206.86,474.49a72.32,72.32,0,0,0-72.32,72.32h144.65A72.32,72.32,0,0,0,1206.86,474.49Z"/><line class="cls-16" x1="1206.86" y1="617.97" x2="1206.86" y2="659.07"/><line class="cls-16" x1="1218.74" y1="617.97" x2="1218.74" y2="659.07"/><line class="cls-16" x1="1194.99" y1="617.97" x2="1194.99" y2="659.07"/><ellipse class="cls-17" cx="3108.31" cy="879.34" rx="110.22" ry="6.98"/><circle class="cls-8" cx="3065.17" cy="849.64" r="24.65"/><circle class="cls-8" cx="3165.45" cy="849.64" r="24.65"/><polygon class="cls-8" points="3079.71 810.22 3129.61 810.22 3129.61 849.64 3079.71 810.22"/><polyline class="cls-8" points="3129.61 810.22 3151.08 810.22 3151.08 795.07"/><path class="cls-8" d="M3065.17,849.64v-54.4A12.79,12.79,0,0,1,3078,782.45h15"/><line class="cls-8" x1="3138.23" y1="795.07" x2="3163.93" y2="795.07"/><rect class="cls-3" x="746.37" y="542.47" width="237.99" height="116.24" rx="17.93"/><rect class="cls-18" x="821.9" y="497.22" width="86.91" height="206.74" rx="6.28" transform="translate(1465.95 -264.77) rotate(90)"/><path class="cls-11" d="M889.7,592.39a3.2,3.2,0,0,0-.19-1.12,2.14,2.14,0,0,0-.68-.91,5.74,5.74,0,0,0-1.36-.8,23.21,23.21,0,0,0-2.22-.79,21,21,0,0,1-2.75-1,10,10,0,0,1-2.16-1.33,5.62,5.62,0,0,1-1.42-1.75,4.74,4.74,0,0,1-.52-2.26,5,5,0,0,1,.54-2.31,5.3,5.3,0,0,1,1.51-1.83,6.85,6.85,0,0,1,2.33-1.2,9.75,9.75,0,0,1,3-.43,9.48,9.48,0,0,1,3.16.5,7.1,7.1,0,0,1,2.36,1.38,6,6,0,0,1,1.48,2,5.79,5.79,0,0,1,.52,2.45h-3.6a3.86,3.86,0,0,0-.24-1.39,3,3,0,0,0-.72-1.11,3.54,3.54,0,0,0-1.23-.72,5.45,5.45,0,0,0-1.76-.25,5.83,5.83,0,0,0-1.66.21,3.18,3.18,0,0,0-1.16.6,2.42,2.42,0,0,0-.69.91,2.94,2.94,0,0,0-.22,1.15,2.3,2.3,0,0,0,1.09,1.93,11.81,11.81,0,0,0,3.34,1.43,19.23,19.23,0,0,1,3,1.14,9.18,9.18,0,0,1,2.13,1.42,5.21,5.21,0,0,1,1.27,1.79,5.88,5.88,0,0,1,.41,2.24,5.25,5.25,0,0,1-.52,2.37,5,5,0,0,1-1.49,1.78,6.93,6.93,0,0,1-2.33,1.13,11.22,11.22,0,0,1-3.06.4,11,11,0,0,1-3-.41,8.21,8.21,0,0,1-2.62-1.23,6.4,6.4,0,0,1-1.86-2,5.63,5.63,0,0,1-.71-2.89h3.61a3.8,3.8,0,0,0,.35,1.69,3.31,3.31,0,0,0,1,1.16,4.14,4.14,0,0,0,1.44.66,7.26,7.26,0,0,0,1.79.21,4.44,4.44,0,0,0,2.83-.77A2.45,2.45,0,0,0,889.7,592.39Z"/><path class="cls-11" d="M911.71,576.93v13.93a7.47,7.47,0,0,1-.61,3.13,6.34,6.34,0,0,1-1.66,2.24,7.14,7.14,0,0,1-2.47,1.35,10,10,0,0,1-3,.46,10.21,10.21,0,0,1-3.09-.46,7,7,0,0,1-2.47-1.35,6.27,6.27,0,0,1-1.63-2.24,7.8,7.8,0,0,1-.58-3.13V576.93h3.6v13.93a5.79,5.79,0,0,0,.29,1.92,3.57,3.57,0,0,0,.84,1.34,3.36,3.36,0,0,0,1.32.78,5.76,5.76,0,0,0,1.72.25,5.89,5.89,0,0,0,1.74-.25,3.36,3.36,0,0,0,1.32-.78,3.55,3.55,0,0,0,.83-1.34,5.79,5.79,0,0,0,.29-1.92V576.93Z"/><path class="cls-11" d="M915.57,597.75V576.93h6.15a10.17,10.17,0,0,1,3.81.7,8.56,8.56,0,0,1,3,2,9.12,9.12,0,0,1,1.92,3.12,11.51,11.51,0,0,1,.69,4.09v1a11.64,11.64,0,0,1-.68,4.08,8.8,8.8,0,0,1-1.93,3.11,8.51,8.51,0,0,1-3,2,10.44,10.44,0,0,1-3.92.7Zm3.62-17.9v15h2.36a6.54,6.54,0,0,0,2.59-.48A4.82,4.82,0,0,0,926,593a6.08,6.08,0,0,0,1.11-2.2,11,11,0,0,0,.37-2.93v-1.06a7.89,7.89,0,0,0-1.48-5.17,5.21,5.21,0,0,0-4.27-1.79Z"/><path class="cls-11" d="M884.07,625h-3.62l-9.28-14.77V625h-3.61V604.15h3.61L880.48,619V604.15h3.59Z"/><path class="cls-11" d="M905,615.11a13.32,13.32,0,0,1-.63,4.25,9.09,9.09,0,0,1-1.75,3.19,7.6,7.6,0,0,1-2.71,2,9.15,9.15,0,0,1-7,0,7.88,7.88,0,0,1-2.74-2,9.32,9.32,0,0,1-1.79-3.19,13.32,13.32,0,0,1-.63-4.25v-1.06a13.43,13.43,0,0,1,.63-4.26,9.57,9.57,0,0,1,1.78-3.21,7.63,7.63,0,0,1,2.72-2,8.51,8.51,0,0,1,3.5-.7,8.66,8.66,0,0,1,3.53.7,7.76,7.76,0,0,1,2.73,2,9.35,9.35,0,0,1,1.75,3.21,13.43,13.43,0,0,1,.63,4.26ZM901.34,614a12.4,12.4,0,0,0-.34-3.08,6.49,6.49,0,0,0-1-2.24,4.13,4.13,0,0,0-1.58-1.36,4.69,4.69,0,0,0-2.12-.47,4.62,4.62,0,0,0-2.09.47,4.36,4.36,0,0,0-1.58,1.36,6.91,6.91,0,0,0-1,2.24,12.37,12.37,0,0,0-.35,3.08v1.09a12.37,12.37,0,0,0,.35,3.08,6.82,6.82,0,0,0,1,2.26,4.36,4.36,0,0,0,1.6,1.37,4.62,4.62,0,0,0,2.09.46,4.27,4.27,0,0,0,3.7-1.83,9.23,9.23,0,0,0,1.29-5.34Z"/><path class="cls-11" d="M916.21,617h-4v8h-3.62V604.15h7.32a11.53,11.53,0,0,1,3.19.41,6.49,6.49,0,0,1,2.36,1.2,5,5,0,0,1,1.47,2,7,7,0,0,1,.5,2.72,5.85,5.85,0,0,1-1,3.49,6.44,6.44,0,0,1-2.81,2.17l4.68,8.68V625h-3.88Zm-4-2.9h3.71a5.21,5.21,0,0,0,1.71-.26,3.43,3.43,0,0,0,1.21-.71,3,3,0,0,0,.73-1.09,3.86,3.86,0,0,0,.24-1.39,4.16,4.16,0,0,0-.23-1.45,2.8,2.8,0,0,0-.7-1.11,3.07,3.07,0,0,0-1.21-.72,5.65,5.65,0,0,0-1.76-.25h-3.7Z"/><path class="cls-11" d="M926.83,625V604.15H933a10,10,0,0,1,3.81.71,8.4,8.4,0,0,1,3,2,9.12,9.12,0,0,1,1.92,3.12,11.54,11.54,0,0,1,.69,4.09v1a11.64,11.64,0,0,1-.68,4.08,9,9,0,0,1-1.93,3.11,8.6,8.6,0,0,1-3,2,10.48,10.48,0,0,1-3.92.7Zm3.62-17.9v15h2.36a6.45,6.45,0,0,0,2.58-.48,4.78,4.78,0,0,0,1.86-1.38,5.91,5.91,0,0,0,1.1-2.2,10.51,10.51,0,0,0,.38-2.93V614a7.94,7.94,0,0,0-1.48-5.17,5.21,5.21,0,0,0-4.27-1.79Z"/><rect class="cls-19" x="782.5" y="573.22" width="57.68" height="18.29"/><path class="cls-19" d="M820.31,626.1l-9,5.23-9-5.23a40.06,40.06,0,0,1-19.87-34.59h57.68A40,40,0,0,1,820.31,626.1Z"/><line class="cls-18" x1="790.34" y1="582.37" x2="832.34" y2="582.37"/><path class="cls-11" d="M805,617.77h-3.28V601.92l-4.84,1.66V600.8l7.7-2.83H805Z"/><path class="cls-11" d="M812.7,608l1.07-10h10.6v2.85h-7.86L816,605.6a6.53,6.53,0,0,1,1.26-.53,6,6,0,0,1,1.83-.26,6.59,6.59,0,0,1,2.5.46,5,5,0,0,1,1.88,1.33,6.1,6.1,0,0,1,1.16,2.1,8.77,8.77,0,0,1,.41,2.77,8,8,0,0,1-.4,2.57,5.88,5.88,0,0,1-1.21,2.09,5.67,5.67,0,0,1-2,1.4,7.43,7.43,0,0,1-2.87.51,8,8,0,0,1-2.35-.35,6,6,0,0,1-2-1.07,5.61,5.61,0,0,1-1.44-1.75,5.81,5.81,0,0,1-.63-2.42h3.18a3.51,3.51,0,0,0,1,2.2,3.15,3.15,0,0,0,2.2.76,3.1,3.1,0,0,0,1.4-.29,2.75,2.75,0,0,0,1-.84,3.74,3.74,0,0,0,.6-1.27,6,6,0,0,0,.2-1.64,5.09,5.09,0,0,0-.22-1.55,3.64,3.64,0,0,0-.66-1.25,3.21,3.21,0,0,0-1.1-.81,3.83,3.83,0,0,0-1.53-.29,4.78,4.78,0,0,0-1,.09,3.08,3.08,0,0,0-.76.25,3.92,3.92,0,0,0-.59.37,5.62,5.62,0,0,0-.53.46Z"/><path class="cls-6" d="M2624.09,671.93h28.12a0,0,0,0,1,0,0v47.54a14.06,14.06,0,0,1-14.06,14.06h0a14.06,14.06,0,0,1-14.06-14.06V671.93A0,0,0,0,1,2624.09,671.93Z"/><path class="cls-6" d="M2652.21,671.93h28.12a0,0,0,0,1,0,0v47.54a14.06,14.06,0,0,1-14.06,14.06h0a14.06,14.06,0,0,1-14.06-14.06V671.93A0,0,0,0,1,2652.21,671.93Z"/><path class="cls-6" d="M2680.33,671.93h28.12a0,0,0,0,1,0,0v47.54a14.06,14.06,0,0,1-14.06,14.06h0a14.06,14.06,0,0,1-14.06-14.06V671.93a0,0,0,0,1,0,0Z"/><path class="cls-6" d="M2708.46,671.93h28.12a0,0,0,0,1,0,0v47.54a14.06,14.06,0,0,1-14.06,14.06h0a14.06,14.06,0,0,1-14.06-14.06V671.93A0,0,0,0,1,2708.46,671.93Z"/><path class="cls-6" d="M2736.58,671.93h28.12a0,0,0,0,1,0,0v47.54a14.06,14.06,0,0,1-14.06,14.06h0a14.06,14.06,0,0,1-14.06-14.06V671.93A0,0,0,0,1,2736.58,671.93Z"/><rect class="cls-3" x="261.84" y="631.61" width="88.61" height="162.88"/><rect class="cls-3" x="407.85" y="754.86" width="62.79" height="69.33" transform="translate(-350.27 1228.77) rotate(-90)"/><line class="cls-7" x1="420.83" y1="789.52" x2="457.67" y2="789.52"/><rect class="cls-3" x="323.97" y="657.61" width="62.79" height="105.09" transform="translate(-354.79 1065.52) rotate(-90)"/><line class="cls-7" x1="343.99" y1="724.6" x2="343.99" y2="699.79"/><line class="cls-7" x1="372.67" y1="724.6" x2="372.67" y2="699.79"/><rect class="cls-3" x="199.04" y="656.01" width="62.79" height="105.09" transform="translate(460.88 1417.11) rotate(180)"/><line class="cls-7" x1="244.88" y1="719.93" x2="220.08" y2="719.93"/><line class="cls-7" x1="244.88" y1="691.25" x2="220.08" y2="691.25"/><rect class="cls-3" x="306.14" y="776" width="98.45" height="32.24"/><rect class="cls-3" x="217.53" y="761.33" width="88.61" height="46.8"/><line class="cls-7" x1="235.95" y1="788.52" x2="272.79" y2="788.52"/><rect class="cls-3" x="328.29" y="631.61" width="54.15" height="46.8"/><line class="cls-7" x1="354.8" y1="644.76" x2="354.8" y2="667.27"/><rect class="cls-3" x="234.76" y="583.37" width="54.15" height="46.8"/><line class="cls-7" x1="261.27" y1="596.51" x2="261.27" y2="619.02"/><rect class="cls-3" x="148.57" y="675.63" width="54.15" height="46.8" transform="translate(-523.39 874.67) rotate(-90)"/><line class="cls-7" x1="165.39" y1="699.6" x2="187.9" y2="699.6"/><circle class="cls-11" cx="1940.27" cy="596.98" r="29.19"/><line class="cls-13" x1="1940.27" y1="567.79" x2="1940.27" y2="612.46"/><polyline class="cls-13" points="1920.88 593.06 1940.27 612.46 1959.67 593.06"/><rect class="cls-4" x="2753.57" y="607.37" width="54.3" height="12.19"/><rect class="cls-4" x="2779.3" y="595.18" width="54.3" height="12.19"/><rect class="cls-4" x="3039.04" y="665.81" width="54.3" height="12.19"/><rect class="cls-4" x="3064.77" y="653.62" width="54.3" height="12.19"/><ellipse class="cls-11" cx="3166.65" cy="571.5" rx="15.51" ry="9.06"/><polyline class="cls-8" points="3178.01 571.5 3178.01 506.13 3224.91 484.24 3224.91 549.6"/><ellipse class="cls-11" cx="3213.55" cy="549.6" rx="15.51" ry="9.06"/><rect class="cls-6" x="1498.85" y="665.9" width="40.92" height="33.96"/><rect class="cls-6" x="1498.85" y="699.85" width="40.92" height="33.96"/><rect class="cls-6" x="1498.85" y="733.81" width="40.92" height="33.96"/><rect class="cls-6" x="1539.76" y="665.9" width="40.92" height="33.96"/><rect class="cls-6" x="1539.76" y="699.85" width="40.92" height="33.96"/><rect class="cls-6" x="1539.76" y="733.81" width="40.92" height="33.96"/><rect class="cls-6" x="1580.68" y="665.9" width="40.92" height="33.96"/><rect class="cls-6" x="1580.68" y="699.85" width="40.92" height="33.96"/><rect class="cls-6" x="1580.68" y="733.81" width="40.92" height="33.96"/><rect class="cls-6" x="1621.59" y="665.9" width="40.92" height="33.96"/><rect class="cls-6" x="1621.59" y="699.85" width="40.92" height="33.96"/><rect class="cls-6" x="1621.59" y="733.81" width="40.92" height="33.96"/><rect class="cls-6" x="1662.51" y="665.9" width="40.92" height="33.96"/><rect class="cls-6" x="1662.51" y="699.85" width="40.92" height="33.96"/><rect class="cls-6" x="1662.51" y="733.81" width="40.92" height="33.96"/><rect class="cls-6" x="1703.42" y="665.9" width="40.92" height="33.96"/><rect class="cls-6" x="1703.42" y="699.85" width="40.92" height="33.96"/><rect class="cls-6" x="1703.42" y="733.81" width="40.92" height="33.96"/><polyline class="cls-7" points="1494.44 762.72 1494.44 665.9 1744.34 665.9 1744.34 784.77 1901.08 784.77"/><path class="cls-4" d="M1494.44,782.22A13.47,13.47,0,1,0,1481,768.76a13.46,13.46,0,0,0,13.47,13.46"/><path class="cls-4" d="M1911.09,797.87a13.47,13.47,0,1,0-13.47-13.47,13.47,13.47,0,0,0,13.47,13.47"/><line class="cls-6" x1="2436.3" y1="373.78" x2="2483.85" y2="326.24"/><circle class="cls-6" cx="2483.85" cy="326.24" r="15.27"/><line class="cls-6" x1="2436.3" y1="373.78" x2="2483.85" y2="421.33"/><circle class="cls-6" cx="2436.3" cy="373.78" r="15.27"/><line class="cls-6" x1="2436.3" y1="468.87" x2="2483.85" y2="421.33"/><circle class="cls-6" cx="2436.3" cy="468.87" r="15.27"/><circle class="cls-6" cx="2483.85" cy="421.33" r="15.27"/><line class="cls-8" x1="389.84" y1="385.25" x2="562.37" y2="385.25"/><circle class="cls-4" cx="574.18" cy="385.25" r="13.46"/><path class="cls-4" d="M312.34,393.49h27.72l13.53,23.68a2.06,2.06,0,0,0,1.79,1h8.43a2.06,2.06,0,0,0,2-2.63l-6.31-22.09h20.24l5.56,7.41a2.06,2.06,0,0,0,1.65.83h5.15a2.05,2.05,0,0,0,2-2.56L390,385.25l4.05-13.91a2,2,0,0,0-2-2.56h-5.15a2.06,2.06,0,0,0-1.65.82L379.72,377H359.48l6.31-22.08a2.06,2.06,0,0,0-2-2.63h-8.43a2.06,2.06,0,0,0-1.79,1L340.06,377H312.34c-4.55,0-12.36,3.69-12.36,8.24S307.79,393.49,312.34,393.49Z"/><path class="cls-11" d="M551.71,342.86v9.44H545.3v-9.36l-8.47-15.25h7.09l4.59,8.57,4.58-8.57h7Z"/><path class="cls-11" d="M584.31,341.86c0,6.6-4.66,10.89-10.89,10.89s-10.89-4.29-10.89-10.89V327.69H569v14.65a4.48,4.48,0,1,0,8.95,0V327.69h6.41Z"/><path class="cls-11" d="M595.5,346.52h10.18v5.78H589.09V327.69h6.41Z"/><polyline class="cls-2" points="2827.35 871.36 2769.39 871.36 2769.39 839.44 2737.48 839.44 2737.48 807.53 2705.57 807.53 2705.57 775.61 2632.34 775.61 2632.34 857.85"/><polyline class="cls-2" points="2827.35 871.36 2769.39 871.36 2769.39 839.44 2737.48 839.44 2737.48 807.53 2705.57 807.53 2705.57 775.61 2632.34 775.61 2632.34 857.85"/><polyline class="cls-14" points="2827.35 871.36 2769.39 871.36 2769.39 839.44 2737.48 839.44 2737.48 807.53 2705.57 807.53 2705.57 775.61 2632.34 775.61 2632.34 857.85"/><circle class="cls-4" cx="2840.81" cy="871.36" r="11.29"/><circle class="cls-4" cx="2632.34" cy="871.36" r="11.29"/><path class="cls-2" d="M1378.45,736.21l-21.93,73.51h56.06l-21.93-73.51A6.36,6.36,0,0,0,1378.45,736.21Z"/><line class="cls-8" x1="1371.29" y1="760.2" x2="1397.81" y2="760.2"/><line class="cls-8" x1="1366.11" y1="777.57" x2="1402.99" y2="777.57"/><path class="cls-8" d="M1378.45,736.21l-21.93,73.51h56.06l-21.93-73.51A6.36,6.36,0,0,0,1378.45,736.21Z"/><line class="cls-20" x1="1346.83" y1="809.72" x2="1422.27" y2="809.72"/><polyline class="cls-8" points="1260.51 322 1260.51 370.28 1216.23 326 1171.95 370.28 1127.67 326 1083.39 370.28 1039.11 326 1039.11 374.28"/><rect class="cls-2" x="2349.42" y="747.51" width="213.06" height="68.53"/><line class="cls-13" x1="2562.48" y1="781.57" x2="2349.42" y2="781.57"/><rect class="cls-7" x="2349.42" y="747.51" width="211.87" height="68.53"/><rect class="cls-2" x="1470.38" y="835.37" width="479.56" height="56.37"/><circle class="cls-4" cx="2986.6" cy="809.41" r="13.46"/></g></g></svg>