<svg xmlns="http://www.w3.org/2000/svg" width="160" height="22.742" viewBox="0 0 160 22.742"><g transform="translate(0 0)"><g transform="translate(0 0)"><path d="M439.4,71.743c0,2.006-1.567,3.415-3.82,3.415H430.4V63.54h4.118c2.154,0,3.674,1.32,3.674,3.239a2.82,2.82,0,0,1-.863,2.094A2.9,2.9,0,0,1,439.4,71.743Zm-6.707-6.162v2.661h1.637c.986,0,1.513-.546,1.513-1.338s-.527-1.32-1.513-1.32Zm4.365,6.073c0-.9-.616-1.461-1.655-1.461h-2.71v2.922h2.71C436.438,73.115,437.053,72.57,437.053,71.654Z" transform="translate(-376.634 -55.796)" fill="#fff"/><path d="M541.611,85.731v2.1h-.634a2.094,2.094,0,0,0-2.342,2.271v4.349H536.26V85.731h2.182v1.057a2.959,2.959,0,0,1,2.395-1.162A2.481,2.481,0,0,1,541.611,85.731Z" transform="translate(-469.247 -75.082)" fill="#fff"/><path d="M611.281,51.267a1.488,1.488,0,1,1-.455-1.06A1.483,1.483,0,0,1,611.281,51.267Zm-.335,11.883h-2.376V54.436h2.376Z" transform="translate(-532.198 -43.788)" fill="#fff"/><path d="M674.529,51V64.2h-2.186V63.112a3.326,3.326,0,0,1-2.8,1.3,4.259,4.259,0,0,1-4.224-4.561,4.259,4.259,0,0,1,4.224-4.562,3.4,3.4,0,0,1,2.605,1.039V51Zm-2.344,8.858a2.19,2.19,0,0,0-2.2-2.407,2.406,2.406,0,0,0,0,4.8A2.169,2.169,0,0,0,672.185,59.858Z" transform="translate(-582.209 -44.845)" fill="#fff"/><path d="M782.983,85.2v7.746c0,2.94-1.884,4.347-4.507,4.347a6.248,6.248,0,0,1-4.278-1.619l1.248-1.655a4.444,4.444,0,0,0,2.833,1.126c1.338,0,2.324-.651,2.324-2.059V92.62a3.552,3.552,0,0,1-2.661,1.039,4.322,4.322,0,0,1,0-8.639,3.348,3.348,0,0,1,2.851,1.285V85.2Zm-2.342,4.084a2.086,2.086,0,0,0-2.2-2.253,2.157,2.157,0,0,0-2.254,2.271,2.226,2.226,0,0,0,2.254,2.342A2.168,2.168,0,0,0,780.641,89.286Z" transform="translate(-677.112 -74.554)" fill="#fff"/><path d="M890.539,90.252h-6.125a2.345,2.345,0,0,0,2.465,1.725,3.837,3.837,0,0,0,2.429-.881l.986,1.621a5.307,5.307,0,0,1-3.486,1.3,4.558,4.558,0,0,1-4.771-4.562A4.494,4.494,0,0,1,886.6,84.9a3.956,3.956,0,0,1,4.1,4.055A6.069,6.069,0,0,1,890.539,90.252Zm-6.125-1.669h3.979a1.776,1.776,0,0,0-1.884-1.761A2.16,2.16,0,0,0,884.414,88.584Z" transform="translate(-771.847 -74.446)" fill="#fff"/><path d="M998.442,61.87V73.7h-2.377V67.491l-2.922,3.675h-.774l-2.922-3.675V73.7H987.07V61.87h.774l4.911,6.3,4.911-6.3Z" transform="translate(-863.792 -54.338)" fill="#fff"/><path d="M1119.982,65.688h-3.732v9.47h-2.377v-9.47h-3.714V63.54h9.822Z" transform="translate(-971.654 -55.796)" fill="#fff"/><path d="M1223.257,73.01h5.087v2.148h-7.464V63.54h2.377Z" transform="translate(-1068.344 -55.796)" fill="#fff"/><path d="M15.546,3.025H30.337V17.816l1.529,1.528,1.5-1.5V3.024H48.187L50.735.476A1.51,1.51,0,0,1,51.8.034V0H11.89a1.509,1.509,0,0,1,1.069.441Z" transform="translate(-10.383 0)" fill="#ef3426"/><path d="M173.217,157.61l-2.579,2.584a1.509,1.509,0,0,1-1.068.443h21.447V157.61Z" transform="translate(-148.084 -137.947)" fill="#ef3426"/><path d="M42,.151a1.536,1.536,0,0,0-1.647.324L37.8,2.989,22.979,17.616l-1.5,1.475-1.529-1.508L5.162,2.989,2.581.441A1.528,1.528,0,0,0,.934.119,1.493,1.493,0,0,0,0,1.5v21.2H3.025V5.1L20.273,22.123l.136.133a1.523,1.523,0,0,0,2.145,0l2.581-2.547L39.913,5.13V22.693h3.025V1.53A1.493,1.493,0,0,0,42,.151Z" transform="translate(0 -0.005)" fill="#592aea"/></g></g></svg>